STARTFONT 2.1
FONT --Serif-Regular-R-Normal--8-80-72-72-C-80-AMSTRAD-CPM~PLUS
SIZE 8 72 72
FONTBOUNDINGBOX 8 8 0 0
METRICSSET 2
STARTPROPERTIES 17
PIXEL_SIZE 8
RESOLUTION_X 72
RESOLUTION_Y 72
POINT_SIZE 80
FACE_NAME "Serif Regular 8"
FOUNDRY ""
FAMILY_NAME "Serif"
WEIGHT_NAME "Regular"
RELATIVE_WEIGHT 50
SLANT "R"
SPACING "C"
SETWIDTH_NAME "Normal"
RELATIVE_SETWIDTH 50
ADD_STYLE_NAME ""
AVERAGE_WIDTH 80
CHARSET_REGISTRY "AMSTRAD"
CHARSET_ENCODING "CPM-PLUS"
ENDPROPERTIES
CHARS 512
STARTCHAR infinity
ENCODING 0
SWIDTH 1000 0
DWIDTH 8 0
BBX 8 8 0 0
VVECTOR 4 8
SWIDTH1 0 -1000
DWIDTH1 0 -8
BITMAP 
00
00
00
6C
92
92
6C
00
ENDCHAR
STARTCHAR uni2299
ENCODING 1
SWIDTH 1000 0
DWIDTH 8 0
BBX 8 8 0 0
VVECTOR 4 8
SWIDTH1 0 -1000
DWIDTH1 0 -8
BITMAP 
3C
66
C3
DB
DB
C3
66
3C
ENDCHAR
STARTCHAR Gamma
ENCODING 2
SWIDTH 1000 0
DWIDTH 8 0
BBX 8 8 0 0
VVECTOR 4 8
SWIDTH1 0 -1000
DWIDTH1 0 -8
BITMAP 
FE
C6
C0
C0
C0
C0
E0
00
ENDCHAR
STARTCHAR uni0394
ENCODING 3
SWIDTH 1000 0
DWIDTH 8 0
BBX 8 8 0 0
VVECTOR 4 8
SWIDTH1 0 -1000
DWIDTH1 0 -8
BITMAP 
10
38
6C
6C
C6
C6
FE
00
ENDCHAR
STARTCHAR circlemultiply
ENCODING 4
SWIDTH 1000 0
DWIDTH 8 0
BBX 8 8 0 0
VVECTOR 4 8
SWIDTH1 0 -1000
DWIDTH1 0 -8
BITMAP 
3C
66
E7
DB
DB
E7
66
3C
ENDCHAR
STARTCHAR multiply
ENCODING 5
SWIDTH 1000 0
DWIDTH 8 0
BBX 8 8 0 0
VVECTOR 4 8
SWIDTH1 0 -1000
DWIDTH1 0 -8
BITMAP 
00
00
00
66
18
18
66
00
ENDCHAR
STARTCHAR divide
ENCODING 6
SWIDTH 1000 0
DWIDTH 8 0
BBX 8 8 0 0
VVECTOR 4 8
SWIDTH1 0 -1000
DWIDTH1 0 -8
BITMAP 
00
00
10
00
7C
00
10
00
ENDCHAR
STARTCHAR therefore
ENCODING 7
SWIDTH 1000 0
DWIDTH 8 0
BBX 8 8 0 0
VVECTOR 4 8
SWIDTH1 0 -1000
DWIDTH1 0 -8
BITMAP 
00
18
18
00
00
66
66
00
ENDCHAR
STARTCHAR Pi
ENCODING 8
SWIDTH 1000 0
DWIDTH 8 0
BBX 8 8 0 0
VVECTOR 4 8
SWIDTH1 0 -1000
DWIDTH1 0 -8
BITMAP 
00
FE
66
66
66
66
EE
00
ENDCHAR
STARTCHAR arrowdown
ENCODING 9
SWIDTH 1000 0
DWIDTH 8 0
BBX 8 8 0 0
VVECTOR 4 8
SWIDTH1 0 -1000
DWIDTH1 0 -8
BITMAP 
00
00
00
C6
6C
38
10
00
ENDCHAR
STARTCHAR Sigma
ENCODING 10
SWIDTH 1000 0
DWIDTH 8 0
BBX 8 8 0 0
VVECTOR 4 8
SWIDTH1 0 -1000
DWIDTH1 0 -8
BITMAP 
FE
C6
60
30
60
C6
FE
00
ENDCHAR
STARTCHAR arrowleft
ENCODING 11
SWIDTH 1000 0
DWIDTH 8 0
BBX 8 8 0 0
VVECTOR 4 8
SWIDTH1 0 -1000
DWIDTH1 0 -8
BITMAP 
00
30
60
C0
60
30
00
00
ENDCHAR
STARTCHAR arrowright
ENCODING 12
SWIDTH 1000 0
DWIDTH 8 0
BBX 8 8 0 0
VVECTOR 4 8
SWIDTH1 0 -1000
DWIDTH1 0 -8
BITMAP 
00
18
0C
06
0C
18
00
00
ENDCHAR
STARTCHAR plusminus
ENCODING 13
SWIDTH 1000 0
DWIDTH 8 0
BBX 8 8 0 0
VVECTOR 4 8
SWIDTH1 0 -1000
DWIDTH1 0 -8
BITMAP 
00
18
18
7E
18
18
7E
00
ENDCHAR
STARTCHAR arrowboth
ENCODING 14
SWIDTH 1000 0
DWIDTH 8 0
BBX 8 8 0 0
VVECTOR 4 8
SWIDTH1 0 -1000
DWIDTH1 0 -8
BITMAP 
00
24
66
C3
66
24
00
00
ENDCHAR
STARTCHAR uni03A9
ENCODING 15
SWIDTH 1000 0
DWIDTH 8 0
BBX 8 8 0 0
VVECTOR 4 8
SWIDTH1 0 -1000
DWIDTH1 0 -8
BITMAP 
00
7C
C6
C6
C6
6C
EE
00
ENDCHAR
STARTCHAR alpha
ENCODING 16
SWIDTH 1000 0
DWIDTH 8 0
BBX 8 8 0 0
VVECTOR 4 8
SWIDTH1 0 -1000
DWIDTH1 0 -8
BITMAP 
00
00
06
7C
CC
CC
76
00
ENDCHAR
STARTCHAR beta
ENCODING 17
SWIDTH 1000 0
DWIDTH 8 0
BBX 8 8 0 0
VVECTOR 4 8
SWIDTH1 0 -1000
DWIDTH1 0 -8
BITMAP 
00
78
C6
F8
C6
F8
C0
00
ENDCHAR
STARTCHAR gamma
ENCODING 18
SWIDTH 1000 0
DWIDTH 8 0
BBX 8 8 0 0
VVECTOR 4 8
SWIDTH1 0 -1000
DWIDTH1 0 -8
BITMAP 
00
00
C6
6C
38
10
10
10
ENDCHAR
STARTCHAR delta
ENCODING 19
SWIDTH 1000 0
DWIDTH 8 0
BBX 8 8 0 0
VVECTOR 4 8
SWIDTH1 0 -1000
DWIDTH1 0 -8
BITMAP 
1E
30
30
3C
66
66
3C
00
ENDCHAR
STARTCHAR epsilon
ENCODING 20
SWIDTH 1000 0
DWIDTH 8 0
BBX 8 8 0 0
VVECTOR 4 8
SWIDTH1 0 -1000
DWIDTH1 0 -8
BITMAP 
00
00
1C
60
1C
60
1C
00
ENDCHAR
STARTCHAR zeta
ENCODING 21
SWIDTH 1000 0
DWIDTH 8 0
BBX 8 8 0 0
VVECTOR 4 8
SWIDTH1 0 -1000
DWIDTH1 0 -8
BITMAP 
7C
C6
C6
FE
C6
C6
7C
00
ENDCHAR
STARTCHAR eta
ENCODING 22
SWIDTH 1000 0
DWIDTH 8 0
BBX 8 8 0 0
VVECTOR 4 8
SWIDTH1 0 -1000
DWIDTH1 0 -8
BITMAP 
C0
60
30
38
2C
66
66
00
ENDCHAR
STARTCHAR theta
ENCODING 23
SWIDTH 1000 0
DWIDTH 8 0
BBX 8 8 0 0
VVECTOR 4 8
SWIDTH1 0 -1000
DWIDTH1 0 -8
BITMAP 
00
00
CC
CC
CC
F8
C0
C0
ENDCHAR
STARTCHAR lambda
ENCODING 24
SWIDTH 1000 0
DWIDTH 8 0
BBX 8 8 0 0
VVECTOR 4 8
SWIDTH1 0 -1000
DWIDTH1 0 -8
BITMAP 
00
00
FE
CC
CC
CC
C6
00
ENDCHAR
STARTCHAR uni03BC
ENCODING 25
SWIDTH 1000 0
DWIDTH 8 0
BBX 8 8 0 0
VVECTOR 4 8
SWIDTH1 0 -1000
DWIDTH1 0 -8
BITMAP 
00
00
78
CC
CC
F8
C0
C0
ENDCHAR
STARTCHAR pi
ENCODING 26
SWIDTH 1000 0
DWIDTH 8 0
BBX 8 8 0 0
VVECTOR 4 8
SWIDTH1 0 -1000
DWIDTH1 0 -8
BITMAP 
00
00
7E
CC
CC
CC
78
00
ENDCHAR
STARTCHAR rho
ENCODING 27
SWIDTH 1000 0
DWIDTH 8 0
BBX 8 8 0 0
VVECTOR 4 8
SWIDTH1 0 -1000
DWIDTH1 0 -8
BITMAP 
00
00
FC
30
30
30
18
00
ENDCHAR
STARTCHAR sigma
ENCODING 28
SWIDTH 1000 0
DWIDTH 8 0
BBX 8 8 0 0
VVECTOR 4 8
SWIDTH1 0 -1000
DWIDTH1 0 -8
BITMAP 
00
10
7C
D6
D6
7C
10
00
ENDCHAR
STARTCHAR tau
ENCODING 29
SWIDTH 1000 0
DWIDTH 8 0
BBX 8 8 0 0
VVECTOR 4 8
SWIDTH1 0 -1000
DWIDTH1 0 -8
BITMAP 
00
00
C4
6C
38
10
3C
66
ENDCHAR
STARTCHAR phi
ENCODING 30
SWIDTH 1000 0
DWIDTH 8 0
BBX 8 8 0 0
VVECTOR 4 8
SWIDTH1 0 -1000
DWIDTH1 0 -8
BITMAP 
10
10
D6
D6
D6
7C
10
00
ENDCHAR
STARTCHAR chi
ENCODING 31
SWIDTH 1000 0
DWIDTH 8 0
BBX 8 8 0 0
VVECTOR 4 8
SWIDTH1 0 -1000
DWIDTH1 0 -8
BITMAP 
00
00
6C
C6
D6
D6
6C
00
ENDCHAR
STARTCHAR space
ENCODING 32
SWIDTH 1000 0
DWIDTH 8 0
BBX 8 8 0 0
VVECTOR 4 8
SWIDTH1 0 -1000
DWIDTH1 0 -8
BITMAP 
00
00
00
00
00
00
00
00
ENDCHAR
STARTCHAR exclam
ENCODING 33
SWIDTH 1000 0
DWIDTH 8 0
BBX 8 8 0 0
VVECTOR 4 8
SWIDTH1 0 -1000
DWIDTH1 0 -8
BITMAP 
18
18
18
18
18
00
18
00
ENDCHAR
STARTCHAR quotedbl
ENCODING 34
SWIDTH 1000 0
DWIDTH 8 0
BBX 8 8 0 0
VVECTOR 4 8
SWIDTH1 0 -1000
DWIDTH1 0 -8
BITMAP 
66
66
00
00
00
00
00
00
ENDCHAR
STARTCHAR numbersign
ENCODING 35
SWIDTH 1000 0
DWIDTH 8 0
BBX 8 8 0 0
VVECTOR 4 8
SWIDTH1 0 -1000
DWIDTH1 0 -8
BITMAP 
3C
66
60
F8
60
60
FE
00
ENDCHAR
STARTCHAR dollar
ENCODING 36
SWIDTH 1000 0
DWIDTH 8 0
BBX 8 8 0 0
VVECTOR 4 8
SWIDTH1 0 -1000
DWIDTH1 0 -8
BITMAP 
28
3E
68
3C
2A
7C
28
00
ENDCHAR
STARTCHAR percent
ENCODING 37
SWIDTH 1000 0
DWIDTH 8 0
BBX 8 8 0 0
VVECTOR 4 8
SWIDTH1 0 -1000
DWIDTH1 0 -8
BITMAP 
40
A6
4C
18
34
6A
C4
00
ENDCHAR
STARTCHAR ampersand
ENCODING 38
SWIDTH 1000 0
DWIDTH 8 0
BBX 8 8 0 0
VVECTOR 4 8
SWIDTH1 0 -1000
DWIDTH1 0 -8
BITMAP 
78
CC
78
38
6E
C4
7E
00
ENDCHAR
STARTCHAR quotesingle
ENCODING 39
SWIDTH 1000 0
DWIDTH 8 0
BBX 8 8 0 0
VVECTOR 4 8
SWIDTH1 0 -1000
DWIDTH1 0 -8
BITMAP 
0C
18
00
00
00
00
00
00
ENDCHAR
STARTCHAR parenleft
ENCODING 40
SWIDTH 1000 0
DWIDTH 8 0
BBX 8 8 0 0
VVECTOR 4 8
SWIDTH1 0 -1000
DWIDTH1 0 -8
BITMAP 
0C
18
18
18
18
18
0C
00
ENDCHAR
STARTCHAR parenright
ENCODING 41
SWIDTH 1000 0
DWIDTH 8 0
BBX 8 8 0 0
VVECTOR 4 8
SWIDTH1 0 -1000
DWIDTH1 0 -8
BITMAP 
30
18
18
18
18
18
30
00
ENDCHAR
STARTCHAR asterisk
ENCODING 42
SWIDTH 1000 0
DWIDTH 8 0
BBX 8 8 0 0
VVECTOR 4 8
SWIDTH1 0 -1000
DWIDTH1 0 -8
BITMAP 
00
18
5A
3C
3C
5A
18
00
ENDCHAR
STARTCHAR plus
ENCODING 43
SWIDTH 1000 0
DWIDTH 8 0
BBX 8 8 0 0
VVECTOR 4 8
SWIDTH1 0 -1000
DWIDTH1 0 -8
BITMAP 
00
00
18
18
7E
18
18
00
ENDCHAR
STARTCHAR comma
ENCODING 44
SWIDTH 1000 0
DWIDTH 8 0
BBX 8 8 0 0
VVECTOR 4 8
SWIDTH1 0 -1000
DWIDTH1 0 -8
BITMAP 
00
00
00
00
00
18
18
30
ENDCHAR
STARTCHAR hyphen
ENCODING 45
SWIDTH 1000 0
DWIDTH 8 0
BBX 8 8 0 0
VVECTOR 4 8
SWIDTH1 0 -1000
DWIDTH1 0 -8
BITMAP 
00
00
00
00
3E
00
00
00
ENDCHAR
STARTCHAR period
ENCODING 46
SWIDTH 1000 0
DWIDTH 8 0
BBX 8 8 0 0
VVECTOR 4 8
SWIDTH1 0 -1000
DWIDTH1 0 -8
BITMAP 
00
00
00
00
00
18
18
00
ENDCHAR
STARTCHAR slash
ENCODING 47
SWIDTH 1000 0
DWIDTH 8 0
BBX 8 8 0 0
VVECTOR 4 8
SWIDTH1 0 -1000
DWIDTH1 0 -8
BITMAP 
00
06
0C
18
30
60
C0
00
ENDCHAR
STARTCHAR uni0030_uniFE00
ENCODING 48
SWIDTH 1000 0
DWIDTH 8 0
BBX 8 8 0 0
VVECTOR 4 8
SWIDTH1 0 -1000
DWIDTH1 0 -8
BITMAP 
7C
C6
CE
D6
E6
C6
7C
00
ENDCHAR
STARTCHAR one
ENCODING 49
SWIDTH 1000 0
DWIDTH 8 0
BBX 8 8 0 0
VVECTOR 4 8
SWIDTH1 0 -1000
DWIDTH1 0 -8
BITMAP 
38
78
18
18
18
18
7E
00
ENDCHAR
STARTCHAR two
ENCODING 50
SWIDTH 1000 0
DWIDTH 8 0
BBX 8 8 0 0
VVECTOR 4 8
SWIDTH1 0 -1000
DWIDTH1 0 -8
BITMAP 
7C
C6
06
7C
C0
C0
FE
00
ENDCHAR
STARTCHAR three
ENCODING 51
SWIDTH 1000 0
DWIDTH 8 0
BBX 8 8 0 0
VVECTOR 4 8
SWIDTH1 0 -1000
DWIDTH1 0 -8
BITMAP 
7C
C6
06
0C
06
C6
7C
00
ENDCHAR
STARTCHAR four
ENCODING 52
SWIDTH 1000 0
DWIDTH 8 0
BBX 8 8 0 0
VVECTOR 4 8
SWIDTH1 0 -1000
DWIDTH1 0 -8
BITMAP 
0C
1C
3C
6C
CC
FE
0C
00
ENDCHAR
STARTCHAR five
ENCODING 53
SWIDTH 1000 0
DWIDTH 8 0
BBX 8 8 0 0
VVECTOR 4 8
SWIDTH1 0 -1000
DWIDTH1 0 -8
BITMAP 
FE
C0
C0
FC
06
C6
7C
00
ENDCHAR
STARTCHAR six
ENCODING 54
SWIDTH 1000 0
DWIDTH 8 0
BBX 8 8 0 0
VVECTOR 4 8
SWIDTH1 0 -1000
DWIDTH1 0 -8
BITMAP 
7C
C0
C0
FC
C6
C6
7C
00
ENDCHAR
STARTCHAR seven
ENCODING 55
SWIDTH 1000 0
DWIDTH 8 0
BBX 8 8 0 0
VVECTOR 4 8
SWIDTH1 0 -1000
DWIDTH1 0 -8
BITMAP 
7E
06
06
0C
18
30
30
00
ENDCHAR
STARTCHAR eight
ENCODING 56
SWIDTH 1000 0
DWIDTH 8 0
BBX 8 8 0 0
VVECTOR 4 8
SWIDTH1 0 -1000
DWIDTH1 0 -8
BITMAP 
7C
C6
C6
7C
C6
C6
7C
00
ENDCHAR
STARTCHAR nine
ENCODING 57
SWIDTH 1000 0
DWIDTH 8 0
BBX 8 8 0 0
VVECTOR 4 8
SWIDTH1 0 -1000
DWIDTH1 0 -8
BITMAP 
7C
C6
C6
7E
06
06
7C
00
ENDCHAR
STARTCHAR colon
ENCODING 58
SWIDTH 1000 0
DWIDTH 8 0
BBX 8 8 0 0
VVECTOR 4 8
SWIDTH1 0 -1000
DWIDTH1 0 -8
BITMAP 
00
00
18
18
00
18
18
00
ENDCHAR
STARTCHAR semicolon
ENCODING 59
SWIDTH 1000 0
DWIDTH 8 0
BBX 8 8 0 0
VVECTOR 4 8
SWIDTH1 0 -1000
DWIDTH1 0 -8
BITMAP 
00
00
18
18
00
18
30
00
ENDCHAR
STARTCHAR less
ENCODING 60
SWIDTH 1000 0
DWIDTH 8 0
BBX 8 8 0 0
VVECTOR 4 8
SWIDTH1 0 -1000
DWIDTH1 0 -8
BITMAP 
00
0C
18
30
18
0C
00
00
ENDCHAR
STARTCHAR equal
ENCODING 61
SWIDTH 1000 0
DWIDTH 8 0
BBX 8 8 0 0
VVECTOR 4 8
SWIDTH1 0 -1000
DWIDTH1 0 -8
BITMAP 
00
00
00
3E
00
3E
00
00
ENDCHAR
STARTCHAR greater
ENCODING 62
SWIDTH 1000 0
DWIDTH 8 0
BBX 8 8 0 0
VVECTOR 4 8
SWIDTH1 0 -1000
DWIDTH1 0 -8
BITMAP 
00
30
18
0C
18
30
00
00
ENDCHAR
STARTCHAR question
ENCODING 63
SWIDTH 1000 0
DWIDTH 8 0
BBX 8 8 0 0
VVECTOR 4 8
SWIDTH1 0 -1000
DWIDTH1 0 -8
BITMAP 
7C
C6
06
0C
18
00
18
00
ENDCHAR
STARTCHAR at
ENCODING 64
SWIDTH 1000 0
DWIDTH 8 0
BBX 8 8 0 0
VVECTOR 4 8
SWIDTH1 0 -1000
DWIDTH1 0 -8
BITMAP 
7C
C6
CE
DE
CC
C0
7E
00
ENDCHAR
STARTCHAR A
ENCODING 65
SWIDTH 1000 0
DWIDTH 8 0
BBX 8 8 0 0
VVECTOR 4 8
SWIDTH1 0 -1000
DWIDTH1 0 -8
BITMAP 
7C
C6
C6
FE
C6
C6
E7
00
ENDCHAR
STARTCHAR B
ENCODING 66
SWIDTH 1000 0
DWIDTH 8 0
BBX 8 8 0 0
VVECTOR 4 8
SWIDTH1 0 -1000
DWIDTH1 0 -8
BITMAP 
FC
C6
C6
FC
C6
C6
FC
00
ENDCHAR
STARTCHAR C
ENCODING 67
SWIDTH 1000 0
DWIDTH 8 0
BBX 8 8 0 0
VVECTOR 4 8
SWIDTH1 0 -1000
DWIDTH1 0 -8
BITMAP 
7C
C6
C0
C0
C0
C6
7C
00
ENDCHAR
STARTCHAR D
ENCODING 68
SWIDTH 1000 0
DWIDTH 8 0
BBX 8 8 0 0
VVECTOR 4 8
SWIDTH1 0 -1000
DWIDTH1 0 -8
BITMAP 
F8
CC
C6
C6
C6
CC
F8
00
ENDCHAR
STARTCHAR E
ENCODING 69
SWIDTH 1000 0
DWIDTH 8 0
BBX 8 8 0 0
VVECTOR 4 8
SWIDTH1 0 -1000
DWIDTH1 0 -8
BITMAP 
FE
C6
C0
F8
C0
C6
FE
00
ENDCHAR
STARTCHAR F
ENCODING 70
SWIDTH 1000 0
DWIDTH 8 0
BBX 8 8 0 0
VVECTOR 4 8
SWIDTH1 0 -1000
DWIDTH1 0 -8
BITMAP 
7E
66
60
7C
60
60
F0
00
ENDCHAR
STARTCHAR G
ENCODING 71
SWIDTH 1000 0
DWIDTH 8 0
BBX 8 8 0 0
VVECTOR 4 8
SWIDTH1 0 -1000
DWIDTH1 0 -8
BITMAP 
7C
C6
C0
C0
CE
C6
7C
00
ENDCHAR
STARTCHAR H
ENCODING 72
SWIDTH 1000 0
DWIDTH 8 0
BBX 8 8 0 0
VVECTOR 4 8
SWIDTH1 0 -1000
DWIDTH1 0 -8
BITMAP 
E7
66
66
7E
66
66
E7
00
ENDCHAR
STARTCHAR I
ENCODING 73
SWIDTH 1000 0
DWIDTH 8 0
BBX 8 8 0 0
VVECTOR 4 8
SWIDTH1 0 -1000
DWIDTH1 0 -8
BITMAP 
7E
5A
18
18
18
5A
7E
00
ENDCHAR
STARTCHAR J
ENCODING 74
SWIDTH 1000 0
DWIDTH 8 0
BBX 8 8 0 0
VVECTOR 4 8
SWIDTH1 0 -1000
DWIDTH1 0 -8
BITMAP 
0E
06
06
06
E6
66
3C
00
ENDCHAR
STARTCHAR K
ENCODING 75
SWIDTH 1000 0
DWIDTH 8 0
BBX 8 8 0 0
VVECTOR 4 8
SWIDTH1 0 -1000
DWIDTH1 0 -8
BITMAP 
EE
CC
D8
F8
CC
C6
E7
00
ENDCHAR
STARTCHAR L
ENCODING 76
SWIDTH 1000 0
DWIDTH 8 0
BBX 8 8 0 0
VVECTOR 4 8
SWIDTH1 0 -1000
DWIDTH1 0 -8
BITMAP 
F0
60
60
60
60
66
7E
00
ENDCHAR
STARTCHAR M
ENCODING 77
SWIDTH 1000 0
DWIDTH 8 0
BBX 8 8 0 0
VVECTOR 4 8
SWIDTH1 0 -1000
DWIDTH1 0 -8
BITMAP 
C7
EE
D6
C6
C6
C6
E7
00
ENDCHAR
STARTCHAR N
ENCODING 78
SWIDTH 1000 0
DWIDTH 8 0
BBX 8 8 0 0
VVECTOR 4 8
SWIDTH1 0 -1000
DWIDTH1 0 -8
BITMAP 
E7
66
76
6E
66
66
E7
00
ENDCHAR
STARTCHAR O
ENCODING 79
SWIDTH 1000 0
DWIDTH 8 0
BBX 8 8 0 0
VVECTOR 4 8
SWIDTH1 0 -1000
DWIDTH1 0 -8
BITMAP 
7C
C6
C6
C6
C6
C6
7C
00
ENDCHAR
STARTCHAR P
ENCODING 80
SWIDTH 1000 0
DWIDTH 8 0
BBX 8 8 0 0
VVECTOR 4 8
SWIDTH1 0 -1000
DWIDTH1 0 -8
BITMAP 
7C
66
66
7C
60
60
F0
00
ENDCHAR
STARTCHAR Q
ENCODING 81
SWIDTH 1000 0
DWIDTH 8 0
BBX 8 8 0 0
VVECTOR 4 8
SWIDTH1 0 -1000
DWIDTH1 0 -8
BITMAP 
7C
C6
C6
C6
D6
CE
7C
00
ENDCHAR
STARTCHAR R
ENCODING 82
SWIDTH 1000 0
DWIDTH 8 0
BBX 8 8 0 0
VVECTOR 4 8
SWIDTH1 0 -1000
DWIDTH1 0 -8
BITMAP 
7C
66
66
7C
66
66
E7
00
ENDCHAR
STARTCHAR S
ENCODING 83
SWIDTH 1000 0
DWIDTH 8 0
BBX 8 8 0 0
VVECTOR 4 8
SWIDTH1 0 -1000
DWIDTH1 0 -8
BITMAP 
7C
C6
C0
7C
06
C6
7C
00
ENDCHAR
STARTCHAR T
ENCODING 84
SWIDTH 1000 0
DWIDTH 8 0
BBX 8 8 0 0
VVECTOR 4 8
SWIDTH1 0 -1000
DWIDTH1 0 -8
BITMAP 
7E
5A
18
18
18
18
3C
00
ENDCHAR
STARTCHAR U
ENCODING 85
SWIDTH 1000 0
DWIDTH 8 0
BBX 8 8 0 0
VVECTOR 4 8
SWIDTH1 0 -1000
DWIDTH1 0 -8
BITMAP 
E7
66
66
66
66
66
3C
00
ENDCHAR
STARTCHAR V
ENCODING 86
SWIDTH 1000 0
DWIDTH 8 0
BBX 8 8 0 0
VVECTOR 4 8
SWIDTH1 0 -1000
DWIDTH1 0 -8
BITMAP 
E7
66
66
66
66
3C
18
00
ENDCHAR
STARTCHAR W
ENCODING 87
SWIDTH 1000 0
DWIDTH 8 0
BBX 8 8 0 0
VVECTOR 4 8
SWIDTH1 0 -1000
DWIDTH1 0 -8
BITMAP 
E7
C6
C6
C6
C6
D6
6C
00
ENDCHAR
STARTCHAR X
ENCODING 88
SWIDTH 1000 0
DWIDTH 8 0
BBX 8 8 0 0
VVECTOR 4 8
SWIDTH1 0 -1000
DWIDTH1 0 -8
BITMAP 
E7
66
24
18
24
66
E7
00
ENDCHAR
STARTCHAR Y
ENCODING 89
SWIDTH 1000 0
DWIDTH 8 0
BBX 8 8 0 0
VVECTOR 4 8
SWIDTH1 0 -1000
DWIDTH1 0 -8
BITMAP 
C3
66
66
3C
18
18
3C
00
ENDCHAR
STARTCHAR Z
ENCODING 90
SWIDTH 1000 0
DWIDTH 8 0
BBX 8 8 0 0
VVECTOR 4 8
SWIDTH1 0 -1000
DWIDTH1 0 -8
BITMAP 
FE
C6
0C
18
30
66
FE
00
ENDCHAR
STARTCHAR bracketleft
ENCODING 91
SWIDTH 1000 0
DWIDTH 8 0
BBX 8 8 0 0
VVECTOR 4 8
SWIDTH1 0 -1000
DWIDTH1 0 -8
BITMAP 
3C
30
30
30
30
30
3C
00
ENDCHAR
STARTCHAR backslash
ENCODING 92
SWIDTH 1000 0
DWIDTH 8 0
BBX 8 8 0 0
VVECTOR 4 8
SWIDTH1 0 -1000
DWIDTH1 0 -8
BITMAP 
00
C0
60
30
18
0C
06
00
ENDCHAR
STARTCHAR bracketright
ENCODING 93
SWIDTH 1000 0
DWIDTH 8 0
BBX 8 8 0 0
VVECTOR 4 8
SWIDTH1 0 -1000
DWIDTH1 0 -8
BITMAP 
3C
0C
0C
0C
0C
0C
3C
00
ENDCHAR
STARTCHAR arrowup
ENCODING 94
SWIDTH 1000 0
DWIDTH 8 0
BBX 8 8 0 0
VVECTOR 4 8
SWIDTH1 0 -1000
DWIDTH1 0 -8
BITMAP 
10
38
6C
C6
00
00
00
00
ENDCHAR
STARTCHAR underscore
ENCODING 95
SWIDTH 1000 0
DWIDTH 8 0
BBX 8 8 0 0
VVECTOR 4 8
SWIDTH1 0 -1000
DWIDTH1 0 -8
BITMAP 
00
00
00
00
00
00
00
FF
ENDCHAR
STARTCHAR grave
ENCODING 96
SWIDTH 1000 0
DWIDTH 8 0
BBX 8 8 0 0
VVECTOR 4 8
SWIDTH1 0 -1000
DWIDTH1 0 -8
BITMAP 
30
18
00
00
00
00
00
00
ENDCHAR
STARTCHAR a
ENCODING 97
SWIDTH 1000 0
DWIDTH 8 0
BBX 8 8 0 0
VVECTOR 4 8
SWIDTH1 0 -1000
DWIDTH1 0 -8
BITMAP 
00
00
7C
06
7E
C6
7E
00
ENDCHAR
STARTCHAR b
ENCODING 98
SWIDTH 1000 0
DWIDTH 8 0
BBX 8 8 0 0
VVECTOR 4 8
SWIDTH1 0 -1000
DWIDTH1 0 -8
BITMAP 
F0
60
7C
66
66
66
7C
00
ENDCHAR
STARTCHAR c
ENCODING 99
SWIDTH 1000 0
DWIDTH 8 0
BBX 8 8 0 0
VVECTOR 4 8
SWIDTH1 0 -1000
DWIDTH1 0 -8
BITMAP 
00
00
3E
66
60
66
3E
00
ENDCHAR
STARTCHAR d
ENCODING 100
SWIDTH 1000 0
DWIDTH 8 0
BBX 8 8 0 0
VVECTOR 4 8
SWIDTH1 0 -1000
DWIDTH1 0 -8
BITMAP 
1E
0C
7C
CC
CC
CC
7C
00
ENDCHAR
STARTCHAR e
ENCODING 101
SWIDTH 1000 0
DWIDTH 8 0
BBX 8 8 0 0
VVECTOR 4 8
SWIDTH1 0 -1000
DWIDTH1 0 -8
BITMAP 
00
00
7C
C6
FC
C0
7C
00
ENDCHAR
STARTCHAR f
ENCODING 102
SWIDTH 1000 0
DWIDTH 8 0
BBX 8 8 0 0
VVECTOR 4 8
SWIDTH1 0 -1000
DWIDTH1 0 -8
BITMAP 
1E
30
78
30
30
30
78
00
ENDCHAR
STARTCHAR g
ENCODING 103
SWIDTH 1000 0
DWIDTH 8 0
BBX 8 8 0 0
VVECTOR 4 8
SWIDTH1 0 -1000
DWIDTH1 0 -8
BITMAP 
00
00
7E
C6
C6
7E
06
3C
ENDCHAR
STARTCHAR h
ENCODING 104
SWIDTH 1000 0
DWIDTH 8 0
BBX 8 8 0 0
VVECTOR 4 8
SWIDTH1 0 -1000
DWIDTH1 0 -8
BITMAP 
F0
60
7C
66
66
66
EE
00
ENDCHAR
STARTCHAR i
ENCODING 105
SWIDTH 1000 0
DWIDTH 8 0
BBX 8 8 0 0
VVECTOR 4 8
SWIDTH1 0 -1000
DWIDTH1 0 -8
BITMAP 
18
00
38
18
18
18
3C
00
ENDCHAR
STARTCHAR j
ENCODING 106
SWIDTH 1000 0
DWIDTH 8 0
BBX 8 8 0 0
VVECTOR 4 8
SWIDTH1 0 -1000
DWIDTH1 0 -8
BITMAP 
0C
00
0C
0C
0C
CC
78
00
ENDCHAR
STARTCHAR k
ENCODING 107
SWIDTH 1000 0
DWIDTH 8 0
BBX 8 8 0 0
VVECTOR 4 8
SWIDTH1 0 -1000
DWIDTH1 0 -8
BITMAP 
E0
60
6C
78
78
6C
F6
00
ENDCHAR
STARTCHAR l
ENCODING 108
SWIDTH 1000 0
DWIDTH 8 0
BBX 8 8 0 0
VVECTOR 4 8
SWIDTH1 0 -1000
DWIDTH1 0 -8
BITMAP 
30
30
30
30
30
30
1C
00
ENDCHAR
STARTCHAR m
ENCODING 109
SWIDTH 1000 0
DWIDTH 8 0
BBX 8 8 0 0
VVECTOR 4 8
SWIDTH1 0 -1000
DWIDTH1 0 -8
BITMAP 
00
00
EC
D6
D6
D6
D7
00
ENDCHAR
STARTCHAR n
ENCODING 110
SWIDTH 1000 0
DWIDTH 8 0
BBX 8 8 0 0
VVECTOR 4 8
SWIDTH1 0 -1000
DWIDTH1 0 -8
BITMAP 
00
00
F8
CC
CC
CC
EE
00
ENDCHAR
STARTCHAR o
ENCODING 111
SWIDTH 1000 0
DWIDTH 8 0
BBX 8 8 0 0
VVECTOR 4 8
SWIDTH1 0 -1000
DWIDTH1 0 -8
BITMAP 
00
00
7C
C6
C6
C6
7C
00
ENDCHAR
STARTCHAR p
ENCODING 112
SWIDTH 1000 0
DWIDTH 8 0
BBX 8 8 0 0
VVECTOR 4 8
SWIDTH1 0 -1000
DWIDTH1 0 -8
BITMAP 
00
00
FC
C6
C6
FC
C0
E0
ENDCHAR
STARTCHAR q
ENCODING 113
SWIDTH 1000 0
DWIDTH 8 0
BBX 8 8 0 0
VVECTOR 4 8
SWIDTH1 0 -1000
DWIDTH1 0 -8
BITMAP 
00
00
7C
CC
CC
7C
0C
0E
ENDCHAR
STARTCHAR r
ENCODING 114
SWIDTH 1000 0
DWIDTH 8 0
BBX 8 8 0 0
VVECTOR 4 8
SWIDTH1 0 -1000
DWIDTH1 0 -8
BITMAP 
00
00
3C
66
60
60
F0
00
ENDCHAR
STARTCHAR s
ENCODING 115
SWIDTH 1000 0
DWIDTH 8 0
BBX 8 8 0 0
VVECTOR 4 8
SWIDTH1 0 -1000
DWIDTH1 0 -8
BITMAP 
00
00
7C
C0
7C
06
7C
00
ENDCHAR
STARTCHAR t
ENCODING 116
SWIDTH 1000 0
DWIDTH 8 0
BBX 8 8 0 0
VVECTOR 4 8
SWIDTH1 0 -1000
DWIDTH1 0 -8
BITMAP 
60
60
F8
60
60
66
3C
00
ENDCHAR
STARTCHAR u
ENCODING 117
SWIDTH 1000 0
DWIDTH 8 0
BBX 8 8 0 0
VVECTOR 4 8
SWIDTH1 0 -1000
DWIDTH1 0 -8
BITMAP 
00
00
EE
CC
CC
CC
78
00
ENDCHAR
STARTCHAR v
ENCODING 118
SWIDTH 1000 0
DWIDTH 8 0
BBX 8 8 0 0
VVECTOR 4 8
SWIDTH1 0 -1000
DWIDTH1 0 -8
BITMAP 
00
00
EE
C6
6C
6C
38
00
ENDCHAR
STARTCHAR w
ENCODING 119
SWIDTH 1000 0
DWIDTH 8 0
BBX 8 8 0 0
VVECTOR 4 8
SWIDTH1 0 -1000
DWIDTH1 0 -8
BITMAP 
00
00
83
D6
D6
D6
6C
00
ENDCHAR
STARTCHAR x
ENCODING 120
SWIDTH 1000 0
DWIDTH 8 0
BBX 8 8 0 0
VVECTOR 4 8
SWIDTH1 0 -1000
DWIDTH1 0 -8
BITMAP 
00
00
C6
6C
38
6C
C6
00
ENDCHAR
STARTCHAR y
ENCODING 121
SWIDTH 1000 0
DWIDTH 8 0
BBX 8 8 0 0
VVECTOR 4 8
SWIDTH1 0 -1000
DWIDTH1 0 -8
BITMAP 
00
00
EE
CC
CC
7C
0C
78
ENDCHAR
STARTCHAR z
ENCODING 122
SWIDTH 1000 0
DWIDTH 8 0
BBX 8 8 0 0
VVECTOR 4 8
SWIDTH1 0 -1000
DWIDTH1 0 -8
BITMAP 
00
00
FE
CC
10
66
FE
00
ENDCHAR
STARTCHAR braceleft
ENCODING 123
SWIDTH 1000 0
DWIDTH 8 0
BBX 8 8 0 0
VVECTOR 4 8
SWIDTH1 0 -1000
DWIDTH1 0 -8
BITMAP 
1E
18
18
70
18
18
1E
00
ENDCHAR
STARTCHAR bar
ENCODING 124
SWIDTH 1000 0
DWIDTH 8 0
BBX 8 8 0 0
VVECTOR 4 8
SWIDTH1 0 -1000
DWIDTH1 0 -8
BITMAP 
18
18
18
18
18
18
18
00
ENDCHAR
STARTCHAR braceright
ENCODING 125
SWIDTH 1000 0
DWIDTH 8 0
BBX 8 8 0 0
VVECTOR 4 8
SWIDTH1 0 -1000
DWIDTH1 0 -8
BITMAP 
78
18
18
0E
18
18
78
00
ENDCHAR
STARTCHAR asciitilde
ENCODING 126
SWIDTH 1000 0
DWIDTH 8 0
BBX 8 8 0 0
VVECTOR 4 8
SWIDTH1 0 -1000
DWIDTH1 0 -8
BITMAP 
32
CC
00
00
00
00
00
00
ENDCHAR
STARTCHAR zero
ENCODING 127
SWIDTH 1000 0
DWIDTH 8 0
BBX 8 8 0 0
VVECTOR 4 8
SWIDTH1 0 -1000
DWIDTH1 0 -8
BITMAP 
38
6C
C6
C6
C6
6C
38
00
ENDCHAR
STARTCHAR uni25FE
ENCODING 128
SWIDTH 1000 0
DWIDTH 8 0
BBX 8 8 0 0
VVECTOR 4 8
SWIDTH1 0 -1000
DWIDTH1 0 -8
BITMAP 
00
00
3C
34
2C
3C
00
00
ENDCHAR
STARTCHAR SF450000
ENCODING 129
SWIDTH 1000 0
DWIDTH 8 0
BBX 8 8 0 0
VVECTOR 4 8
SWIDTH1 0 -1000
DWIDTH1 0 -8
BITMAP 
10
08
FF
55
55
FF
00
00
ENDCHAR
STARTCHAR SF370000
ENCODING 130
SWIDTH 1000 0
DWIDTH 8 0
BBX 8 8 0 0
VVECTOR 4 8
SWIDTH1 0 -1000
DWIDTH1 0 -8
BITMAP 
3C
24
3C
26
3D
24
3C
24
ENDCHAR
STARTCHAR SF380000
ENCODING 131
SWIDTH 1000 0
DWIDTH 8 0
BBX 8 8 0 0
VVECTOR 4 8
SWIDTH1 0 -1000
DWIDTH1 0 -8
BITMAP 
3C
24
3F
2D
15
0F
00
00
ENDCHAR
STARTCHAR SF470000
ENCODING 132
SWIDTH 1000 0
DWIDTH 8 0
BBX 8 8 0 0
VVECTOR 4 8
SWIDTH1 0 -1000
DWIDTH1 0 -8
BITMAP 
00
00
FF
55
55
FF
10
08
ENDCHAR
STARTCHAR SF240000
ENCODING 133
SWIDTH 1000 0
DWIDTH 8 0
BBX 8 8 0 0
VVECTOR 4 8
SWIDTH1 0 -1000
DWIDTH1 0 -8
BITMAP 
3C
24
3C
24
3C
24
3C
24
ENDCHAR
STARTCHAR SF390000
ENCODING 134
SWIDTH 1000 0
DWIDTH 8 0
BBX 8 8 0 0
VVECTOR 4 8
SWIDTH1 0 -1000
DWIDTH1 0 -8
BITMAP 
00
00
0F
11
2D
23
3C
24
ENDCHAR
STARTCHAR SF420000
ENCODING 135
SWIDTH 1000 0
DWIDTH 8 0
BBX 8 8 0 0
VVECTOR 4 8
SWIDTH1 0 -1000
DWIDTH1 0 -8
BITMAP 
3C
24
3F
25
39
27
3C
24
ENDCHAR
STARTCHAR SF200000
ENCODING 136
SWIDTH 1000 0
DWIDTH 8 0
BBX 8 8 0 0
VVECTOR 4 8
SWIDTH1 0 -1000
DWIDTH1 0 -8
BITMAP 
3C
24
3C
A4
7C
24
3C
24
ENDCHAR
STARTCHAR SF260000
ENCODING 137
SWIDTH 1000 0
DWIDTH 8 0
BBX 8 8 0 0
VVECTOR 4 8
SWIDTH1 0 -1000
DWIDTH1 0 -8
BITMAP 
3C
24
D4
4C
48
F0
00
00
ENDCHAR
STARTCHAR SF430000
ENCODING 138
SWIDTH 1000 0
DWIDTH 8 0
BBX 8 8 0 0
VVECTOR 4 8
SWIDTH1 0 -1000
DWIDTH1 0 -8
BITMAP 
00
00
FF
55
55
FF
00
00
ENDCHAR
STARTCHAR SF400000
ENCODING 139
SWIDTH 1000 0
DWIDTH 8 0
BBX 8 8 0 0
VVECTOR 4 8
SWIDTH1 0 -1000
DWIDTH1 0 -8
BITMAP 
3C
24
EF
55
55
FF
00
00
ENDCHAR
STARTCHAR SF250000
ENCODING 140
SWIDTH 1000 0
DWIDTH 8 0
BBX 8 8 0 0
VVECTOR 4 8
SWIDTH1 0 -1000
DWIDTH1 0 -8
BITMAP 
00
00
F0
48
54
E4
3C
24
ENDCHAR
STARTCHAR SF230000
ENCODING 141
SWIDTH 1000 0
DWIDTH 8 0
BBX 8 8 0 0
VVECTOR 4 8
SWIDTH1 0 -1000
DWIDTH1 0 -8
BITMAP 
3C
24
FC
44
5C
E4
3C
24
ENDCHAR
STARTCHAR SF410000
ENCODING 142
SWIDTH 1000 0
DWIDTH 8 0
BBX 8 8 0 0
VVECTOR 4 8
SWIDTH1 0 -1000
DWIDTH1 0 -8
BITMAP 
00
00
FF
55
55
E7
3C
24
ENDCHAR
STARTCHAR SF440000
ENCODING 143
SWIDTH 1000 0
DWIDTH 8 0
BBX 8 8 0 0
VVECTOR 4 8
SWIDTH1 0 -1000
DWIDTH1 0 -8
BITMAP 
3C
24
FF
45
59
E7
3C
24
ENDCHAR
STARTCHAR periodcentered
ENCODING 144
SWIDTH 1000 0
DWIDTH 8 0
BBX 8 8 0 0
VVECTOR 4 8
SWIDTH1 0 -1000
DWIDTH1 0 -8
BITMAP 
00
00
00
08
10
00
00
00
ENDCHAR
STARTCHAR uni2575
ENCODING 145
SWIDTH 1000 0
DWIDTH 8 0
BBX 8 8 0 0
VVECTOR 4 8
SWIDTH1 0 -1000
DWIDTH1 0 -8
BITMAP 
08
10
08
10
00
00
00
00
ENDCHAR
STARTCHAR uni2576
ENCODING 146
SWIDTH 1000 0
DWIDTH 8 0
BBX 8 8 0 0
VVECTOR 4 8
SWIDTH1 0 -1000
DWIDTH1 0 -8
BITMAP 
00
00
00
0A
05
00
00
00
ENDCHAR
STARTCHAR SF020000
ENCODING 147
SWIDTH 1000 0
DWIDTH 8 0
BBX 8 8 0 0
VVECTOR 4 8
SWIDTH1 0 -1000
DWIDTH1 0 -8
BITMAP 
10
08
14
0A
05
00
00
00
ENDCHAR
STARTCHAR uni2577
ENCODING 148
SWIDTH 1000 0
DWIDTH 8 0
BBX 8 8 0 0
VVECTOR 4 8
SWIDTH1 0 -1000
DWIDTH1 0 -8
BITMAP 
00
00
00
00
10
08
10
08
ENDCHAR
STARTCHAR SF110000
ENCODING 149
SWIDTH 1000 0
DWIDTH 8 0
BBX 8 8 0 0
VVECTOR 4 8
SWIDTH1 0 -1000
DWIDTH1 0 -8
BITMAP 
10
08
10
08
10
08
10
08
ENDCHAR
STARTCHAR SF010000
ENCODING 150
SWIDTH 1000 0
DWIDTH 8 0
BBX 8 8 0 0
VVECTOR 4 8
SWIDTH1 0 -1000
DWIDTH1 0 -8
BITMAP 
00
00
00
0A
15
08
10
08
ENDCHAR
STARTCHAR SF080000
ENCODING 151
SWIDTH 1000 0
DWIDTH 8 0
BBX 8 8 0 0
VVECTOR 4 8
SWIDTH1 0 -1000
DWIDTH1 0 -8
BITMAP 
10
08
10
0A
15
08
10
08
ENDCHAR
STARTCHAR uni2574
ENCODING 152
SWIDTH 1000 0
DWIDTH 8 0
BBX 8 8 0 0
VVECTOR 4 8
SWIDTH1 0 -1000
DWIDTH1 0 -8
BITMAP 
00
00
00
A0
50
00
00
00
ENDCHAR
STARTCHAR SF040000
ENCODING 153
SWIDTH 1000 0
DWIDTH 8 0
BBX 8 8 0 0
VVECTOR 4 8
SWIDTH1 0 -1000
DWIDTH1 0 -8
BITMAP 
10
08
10
A8
50
00
00
00
ENDCHAR
STARTCHAR SF100000
ENCODING 154
SWIDTH 1000 0
DWIDTH 8 0
BBX 8 8 0 0
VVECTOR 4 8
SWIDTH1 0 -1000
DWIDTH1 0 -8
BITMAP 
00
00
00
AA
55
00
00
00
ENDCHAR
STARTCHAR SF070000
ENCODING 155
SWIDTH 1000 0
DWIDTH 8 0
BBX 8 8 0 0
VVECTOR 4 8
SWIDTH1 0 -1000
DWIDTH1 0 -8
BITMAP 
10
08
10
AA
55
00
00
00
ENDCHAR
STARTCHAR SF030000
ENCODING 156
SWIDTH 1000 0
DWIDTH 8 0
BBX 8 8 0 0
VVECTOR 4 8
SWIDTH1 0 -1000
DWIDTH1 0 -8
BITMAP 
00
00
00
A0
50
28
10
08
ENDCHAR
STARTCHAR SF090000
ENCODING 157
SWIDTH 1000 0
DWIDTH 8 0
BBX 8 8 0 0
VVECTOR 4 8
SWIDTH1 0 -1000
DWIDTH1 0 -8
BITMAP 
10
08
10
A8
50
08
10
08
ENDCHAR
STARTCHAR SF060000
ENCODING 158
SWIDTH 1000 0
DWIDTH 8 0
BBX 8 8 0 0
VVECTOR 4 8
SWIDTH1 0 -1000
DWIDTH1 0 -8
BITMAP 
00
00
00
AA
55
08
10
08
ENDCHAR
STARTCHAR SF050000
ENCODING 159
SWIDTH 1000 0
DWIDTH 8 0
BBX 8 8 0 0
VVECTOR 4 8
SWIDTH1 0 -1000
DWIDTH1 0 -8
BITMAP 
10
08
10
AA
55
08
10
08
ENDCHAR
STARTCHAR ordfeminine
ENCODING 160
SWIDTH 1000 0
DWIDTH 8 0
BBX 8 8 0 0
VVECTOR 4 8
SWIDTH1 0 -1000
DWIDTH1 0 -8
BITMAP 
7C
06
3E
66
3E
00
00
00
ENDCHAR
STARTCHAR ordmasculine
ENCODING 161
SWIDTH 1000 0
DWIDTH 8 0
BBX 8 8 0 0
VVECTOR 4 8
SWIDTH1 0 -1000
DWIDTH1 0 -8
BITMAP 
3C
66
66
66
3C
00
00
00
ENDCHAR
STARTCHAR degree
ENCODING 162
SWIDTH 1000 0
DWIDTH 8 0
BBX 8 8 0 0
VVECTOR 4 8
SWIDTH1 0 -1000
DWIDTH1 0 -8
BITMAP 
1C
36
1C
00
00
00
00
00
ENDCHAR
STARTCHAR sterling
ENCODING 163
SWIDTH 1000 0
DWIDTH 8 0
BBX 8 8 0 0
VVECTOR 4 8
SWIDTH1 0 -1000
DWIDTH1 0 -8
BITMAP 
00
6C
FE
6C
6C
FE
6C
00
ENDCHAR
STARTCHAR copyright
ENCODING 164
SWIDTH 1000 0
DWIDTH 8 0
BBX 8 8 0 0
VVECTOR 4 8
SWIDTH1 0 -1000
DWIDTH1 0 -8
BITMAP 
3C
42
99
B1
B1
99
42
3C
ENDCHAR
STARTCHAR paragraph
ENCODING 165
SWIDTH 1000 0
DWIDTH 8 0
BBX 8 8 0 0
VVECTOR 4 8
SWIDTH1 0 -1000
DWIDTH1 0 -8
BITMAP 
3E
54
54
34
14
14
3E
00
ENDCHAR
STARTCHAR section
ENCODING 166
SWIDTH 1000 0
DWIDTH 8 0
BBX 8 8 0 0
VVECTOR 4 8
SWIDTH1 0 -1000
DWIDTH1 0 -8
BITMAP 
3C
60
38
24
1C
06
3C
00
ENDCHAR
STARTCHAR dagger
ENCODING 167
SWIDTH 1000 0
DWIDTH 8 0
BBX 8 8 0 0
VVECTOR 4 8
SWIDTH1 0 -1000
DWIDTH1 0 -8
BITMAP 
18
18
66
18
18
18
18
00
ENDCHAR
STARTCHAR onequarter
ENCODING 168
SWIDTH 1000 0
DWIDTH 8 0
BBX 8 8 0 0
VVECTOR 4 8
SWIDTH1 0 -1000
DWIDTH1 0 -8
BITMAP 
20
62
24
28
12
26
4F
02
ENDCHAR
STARTCHAR onehalf
ENCODING 169
SWIDTH 1000 0
DWIDTH 8 0
BBX 8 8 0 0
VVECTOR 4 8
SWIDTH1 0 -1000
DWIDTH1 0 -8
BITMAP 
20
62
24
28
16
29
42
07
ENDCHAR
STARTCHAR threequarters
ENCODING 170
SWIDTH 1000 0
DWIDTH 8 0
BBX 8 8 0 0
VVECTOR 4 8
SWIDTH1 0 -1000
DWIDTH1 0 -8
BITMAP 
C0
22
C4
28
D2
26
4F
02
ENDCHAR
STARTCHAR guillemotleft
ENCODING 171
SWIDTH 1000 0
DWIDTH 8 0
BBX 8 8 0 0
VVECTOR 4 8
SWIDTH1 0 -1000
DWIDTH1 0 -8
BITMAP 
00
00
36
6C
D8
6C
36
00
ENDCHAR
STARTCHAR guillemotright
ENCODING 172
SWIDTH 1000 0
DWIDTH 8 0
BBX 8 8 0 0
VVECTOR 4 8
SWIDTH1 0 -1000
DWIDTH1 0 -8
BITMAP 
00
00
D8
6C
36
6C
D8
00
ENDCHAR
STARTCHAR peseta
ENCODING 173
SWIDTH 1000 0
DWIDTH 8 0
BBX 8 8 0 0
VVECTOR 4 8
SWIDTH1 0 -1000
DWIDTH1 0 -8
BITMAP 
70
D8
D8
F4
C6
C4
C6
00
ENDCHAR
STARTCHAR questiondown
ENCODING 174
SWIDTH 1000 0
DWIDTH 8 0
BBX 8 8 0 0
VVECTOR 4 8
SWIDTH1 0 -1000
DWIDTH1 0 -8
BITMAP 
30
00
30
60
C0
C6
7C
00
ENDCHAR
STARTCHAR exclamdown
ENCODING 175
SWIDTH 1000 0
DWIDTH 8 0
BBX 8 8 0 0
VVECTOR 4 8
SWIDTH1 0 -1000
DWIDTH1 0 -8
BITMAP 
18
00
18
18
18
18
18
00
ENDCHAR
STARTCHAR florin
ENCODING 176
SWIDTH 1000 0
DWIDTH 8 0
BBX 8 8 0 0
VVECTOR 4 8
SWIDTH1 0 -1000
DWIDTH1 0 -8
BITMAP 
00
1C
30
30
3C
60
C0
00
ENDCHAR
STARTCHAR cent
ENCODING 177
SWIDTH 1000 0
DWIDTH 8 0
BBX 8 8 0 0
VVECTOR 4 8
SWIDTH1 0 -1000
DWIDTH1 0 -8
BITMAP 
18
7E
DA
D8
DA
7E
18
00
ENDCHAR
STARTCHAR dieresis
ENCODING 178
SWIDTH 1000 0
DWIDTH 8 0
BBX 8 8 0 0
VVECTOR 4 8
SWIDTH1 0 -1000
DWIDTH1 0 -8
BITMAP 
66
00
00
00
00
00
00
00
ENDCHAR
STARTCHAR acute
ENCODING 179
SWIDTH 1000 0
DWIDTH 8 0
BBX 8 8 0 0
VVECTOR 4 8
SWIDTH1 0 -1000
DWIDTH1 0 -8
BITMAP 
0C
18
00
00
00
00
00
00
ENDCHAR
STARTCHAR circumflex
ENCODING 180
SWIDTH 1000 0
DWIDTH 8 0
BBX 8 8 0 0
VVECTOR 4 8
SWIDTH1 0 -1000
DWIDTH1 0 -8
BITMAP 
3C
66
00
00
00
00
00
00
ENDCHAR
STARTCHAR perthousand
ENCODING 181
SWIDTH 1000 0
DWIDTH 8 0
BBX 8 8 0 0
VVECTOR 4 8
SWIDTH1 0 -1000
DWIDTH1 0 -8
BITMAP 
40
AC
58
30
60
D2
2D
12
ENDCHAR
STARTCHAR oneeighth
ENCODING 182
SWIDTH 1000 0
DWIDTH 8 0
BBX 8 8 0 0
VVECTOR 4 8
SWIDTH1 0 -1000
DWIDTH1 0 -8
BITMAP 
40
C4
48
57
25
47
05
07
ENDCHAR
STARTCHAR threeeighths
ENCODING 183
SWIDTH 1000 0
DWIDTH 8 0
BBX 8 8 0 0
VVECTOR 4 8
SWIDTH1 0 -1000
DWIDTH1 0 -8
BITMAP 
60
24
68
37
65
47
05
07
ENDCHAR
STARTCHAR fiveeighths
ENCODING 184
SWIDTH 1000 0
DWIDTH 8 0
BBX 8 8 0 0
VVECTOR 4 8
SWIDTH1 0 -1000
DWIDTH1 0 -8
BITMAP 
60
44
68
37
65
47
05
07
ENDCHAR
STARTCHAR seveneighths
ENCODING 185
SWIDTH 1000 0
DWIDTH 8 0
BBX 8 8 0 0
VVECTOR 4 8
SWIDTH1 0 -1000
DWIDTH1 0 -8
BITMAP 
E0
24
28
37
25
47
05
07
ENDCHAR
STARTCHAR germandbls
ENCODING 186
SWIDTH 1000 0
DWIDTH 8 0
BBX 8 8 0 0
VVECTOR 4 8
SWIDTH1 0 -1000
DWIDTH1 0 -8
BITMAP 
7C
C6
C6
FC
C6
C6
FC
C0
ENDCHAR
STARTCHAR circle
ENCODING 187
SWIDTH 1000 0
DWIDTH 8 0
BBX 8 8 0 0
VVECTOR 4 8
SWIDTH1 0 -1000
DWIDTH1 0 -8
BITMAP 
00
7C
C6
C6
C6
7C
00
00
ENDCHAR
STARTCHAR bullet
ENCODING 188
SWIDTH 1000 0
DWIDTH 8 0
BBX 8 8 0 0
VVECTOR 4 8
SWIDTH1 0 -1000
DWIDTH1 0 -8
BITMAP 
00
7C
FE
FE
FE
7C
00
00
ENDCHAR
STARTCHAR yen
ENCODING 189
SWIDTH 1000 0
DWIDTH 8 0
BBX 8 8 0 0
VVECTOR 4 8
SWIDTH1 0 -1000
DWIDTH1 0 -8
BITMAP 
C6
6C
38
7E
18
7E
18
00
ENDCHAR
STARTCHAR registered
ENCODING 190
SWIDTH 1000 0
DWIDTH 8 0
BBX 8 8 0 0
VVECTOR 4 8
SWIDTH1 0 -1000
DWIDTH1 0 -8
BITMAP 
3C
42
99
B5
B9
B5
42
3C
ENDCHAR
STARTCHAR trademark
ENCODING 191
SWIDTH 1000 0
DWIDTH 8 0
BBX 8 8 0 0
VVECTOR 4 8
SWIDTH1 0 -1000
DWIDTH1 0 -8
BITMAP 
F1
5B
55
51
51
00
00
00
ENDCHAR
STARTCHAR Aacute
ENCODING 192
SWIDTH 1000 0
DWIDTH 8 0
BBX 8 8 0 0
VVECTOR 4 8
SWIDTH1 0 -1000
DWIDTH1 0 -8
BITMAP 
0C
18
7C
C6
FE
C6
E7
00
ENDCHAR
STARTCHAR Eacute
ENCODING 193
SWIDTH 1000 0
DWIDTH 8 0
BBX 8 8 0 0
VVECTOR 4 8
SWIDTH1 0 -1000
DWIDTH1 0 -8
BITMAP 
18
30
FE
C6
F0
C6
FE
00
ENDCHAR
STARTCHAR Iacute
ENCODING 194
SWIDTH 1000 0
DWIDTH 8 0
BBX 8 8 0 0
VVECTOR 4 8
SWIDTH1 0 -1000
DWIDTH1 0 -8
BITMAP 
18
30
7E
5A
18
5A
7E
00
ENDCHAR
STARTCHAR Oacute
ENCODING 195
SWIDTH 1000 0
DWIDTH 8 0
BBX 8 8 0 0
VVECTOR 4 8
SWIDTH1 0 -1000
DWIDTH1 0 -8
BITMAP 
18
30
7C
C6
C6
C6
7C
00
ENDCHAR
STARTCHAR Uacute
ENCODING 196
SWIDTH 1000 0
DWIDTH 8 0
BBX 8 8 0 0
VVECTOR 4 8
SWIDTH1 0 -1000
DWIDTH1 0 -8
BITMAP 
18
30
E7
66
66
66
3C
00
ENDCHAR
STARTCHAR Acircumflex
ENCODING 197
SWIDTH 1000 0
DWIDTH 8 0
BBX 8 8 0 0
VVECTOR 4 8
SWIDTH1 0 -1000
DWIDTH1 0 -8
BITMAP 
7C
C6
7C
C6
FE
C6
E7
00
ENDCHAR
STARTCHAR Ecircumflex
ENCODING 198
SWIDTH 1000 0
DWIDTH 8 0
BBX 8 8 0 0
VVECTOR 4 8
SWIDTH1 0 -1000
DWIDTH1 0 -8
BITMAP 
7C
C6
FE
C6
F0
C6
FE
00
ENDCHAR
STARTCHAR Icircumflex
ENCODING 199
SWIDTH 1000 0
DWIDTH 8 0
BBX 8 8 0 0
VVECTOR 4 8
SWIDTH1 0 -1000
DWIDTH1 0 -8
BITMAP 
7C
C6
7E
5A
18
5A
7E
00
ENDCHAR
STARTCHAR Ocircumflex
ENCODING 200
SWIDTH 1000 0
DWIDTH 8 0
BBX 8 8 0 0
VVECTOR 4 8
SWIDTH1 0 -1000
DWIDTH1 0 -8
BITMAP 
7C
C6
00
7C
C6
C6
7C
00
ENDCHAR
STARTCHAR Ucircumflex
ENCODING 201
SWIDTH 1000 0
DWIDTH 8 0
BBX 8 8 0 0
VVECTOR 4 8
SWIDTH1 0 -1000
DWIDTH1 0 -8
BITMAP 
7C
C6
00
E7
66
66
3C
00
ENDCHAR
STARTCHAR Agrave
ENCODING 202
SWIDTH 1000 0
DWIDTH 8 0
BBX 8 8 0 0
VVECTOR 4 8
SWIDTH1 0 -1000
DWIDTH1 0 -8
BITMAP 
30
18
7C
C6
FE
C6
E7
00
ENDCHAR
STARTCHAR Egrave
ENCODING 203
SWIDTH 1000 0
DWIDTH 8 0
BBX 8 8 0 0
VVECTOR 4 8
SWIDTH1 0 -1000
DWIDTH1 0 -8
BITMAP 
10
08
00
7E
42
78
42
7E
ENDCHAR
STARTCHAR Igrave
ENCODING 204
SWIDTH 1000 0
DWIDTH 8 0
BBX 8 8 0 0
VVECTOR 4 8
SWIDTH1 0 -1000
DWIDTH1 0 -8
BITMAP 
10
08
00
3E
2A
08
2A
3E
ENDCHAR
STARTCHAR Ograve
ENCODING 205
SWIDTH 1000 0
DWIDTH 8 0
BBX 8 8 0 0
VVECTOR 4 8
SWIDTH1 0 -1000
DWIDTH1 0 -8
BITMAP 
10
08
00
3C
42
42
42
3C
ENDCHAR
STARTCHAR Ugrave
ENCODING 206
SWIDTH 1000 0
DWIDTH 8 0
BBX 8 8 0 0
VVECTOR 4 8
SWIDTH1 0 -1000
DWIDTH1 0 -8
BITMAP 
10
08
00
E7
42
42
42
3C
ENDCHAR
STARTCHAR Ydieresis
ENCODING 207
SWIDTH 1000 0
DWIDTH 8 0
BBX 8 8 0 0
VVECTOR 4 8
SWIDTH1 0 -1000
DWIDTH1 0 -8
BITMAP 
24
00
00
C7
44
38
10
38
ENDCHAR
STARTCHAR Adieresis
ENCODING 208
SWIDTH 1000 0
DWIDTH 8 0
BBX 8 8 0 0
VVECTOR 4 8
SWIDTH1 0 -1000
DWIDTH1 0 -8
BITMAP 
24
00
00
3C
42
7E
42
E7
ENDCHAR
STARTCHAR Edieresis
ENCODING 209
SWIDTH 1000 0
DWIDTH 8 0
BBX 8 8 0 0
VVECTOR 4 8
SWIDTH1 0 -1000
DWIDTH1 0 -8
BITMAP 
24
00
00
7E
42
78
42
7E
ENDCHAR
STARTCHAR Idieresis
ENCODING 210
SWIDTH 1000 0
DWIDTH 8 0
BBX 8 8 0 0
VVECTOR 4 8
SWIDTH1 0 -1000
DWIDTH1 0 -8
BITMAP 
24
00
00
3E
2A
08
2A
3E
ENDCHAR
STARTCHAR Odieresis
ENCODING 211
SWIDTH 1000 0
DWIDTH 8 0
BBX 8 8 0 0
VVECTOR 4 8
SWIDTH1 0 -1000
DWIDTH1 0 -8
BITMAP 
24
00
00
3C
42
42
42
3C
ENDCHAR
STARTCHAR Udieresis
ENCODING 212
SWIDTH 1000 0
DWIDTH 8 0
BBX 8 8 0 0
VVECTOR 4 8
SWIDTH1 0 -1000
DWIDTH1 0 -8
BITMAP 
24
00
00
E7
42
42
42
3C
ENDCHAR
STARTCHAR Ccedilla
ENCODING 213
SWIDTH 1000 0
DWIDTH 8 0
BBX 8 8 0 0
VVECTOR 4 8
SWIDTH1 0 -1000
DWIDTH1 0 -8
BITMAP 
00
3C
46
40
46
3C
10
30
ENDCHAR
STARTCHAR AE
ENCODING 214
SWIDTH 1000 0
DWIDTH 8 0
BBX 8 8 0 0
VVECTOR 4 8
SWIDTH1 0 -1000
DWIDTH1 0 -8
BITMAP 
00
00
00
7F
49
7C
49
DF
ENDCHAR
STARTCHAR Aring
ENCODING 215
SWIDTH 1000 0
DWIDTH 8 0
BBX 8 8 0 0
VVECTOR 4 8
SWIDTH1 0 -1000
DWIDTH1 0 -8
BITMAP 
10
28
10
3C
42
7E
42
E7
ENDCHAR
STARTCHAR Oslash
ENCODING 216
SWIDTH 1000 0
DWIDTH 8 0
BBX 8 8 0 0
VVECTOR 4 8
SWIDTH1 0 -1000
DWIDTH1 0 -8
BITMAP 
00
00
3C
46
4A
52
62
7C
ENDCHAR
STARTCHAR Ntilde
ENCODING 217
SWIDTH 1000 0
DWIDTH 8 0
BBX 8 8 0 0
VVECTOR 4 8
SWIDTH1 0 -1000
DWIDTH1 0 -8
BITMAP 
28
50
00
E7
62
5A
46
E7
ENDCHAR
STARTCHAR Atilde
ENCODING 218
SWIDTH 1000 0
DWIDTH 8 0
BBX 8 8 0 0
VVECTOR 4 8
SWIDTH1 0 -1000
DWIDTH1 0 -8
BITMAP 
28
50
00
3C
42
7E
42
E5
ENDCHAR
STARTCHAR Otilde
ENCODING 219
SWIDTH 1000 0
DWIDTH 8 0
BBX 8 8 0 0
VVECTOR 4 8
SWIDTH1 0 -1000
DWIDTH1 0 -8
BITMAP 
28
50
00
3C
42
42
42
3C
ENDCHAR
STARTCHAR greaterequal
ENCODING 220
SWIDTH 1000 0
DWIDTH 8 0
BBX 8 8 0 0
VVECTOR 4 8
SWIDTH1 0 -1000
DWIDTH1 0 -8
BITMAP 
00
30
18
0C
18
30
00
00
ENDCHAR
STARTCHAR lessequal
ENCODING 221
SWIDTH 1000 0
DWIDTH 8 0
BBX 8 8 0 0
VVECTOR 4 8
SWIDTH1 0 -1000
DWIDTH1 0 -8
BITMAP 
00
08
10
20
10
28
10
08
ENDCHAR
STARTCHAR notequal
ENCODING 222
SWIDTH 1000 0
DWIDTH 8 0
BBX 8 8 0 0
VVECTOR 4 8
SWIDTH1 0 -1000
DWIDTH1 0 -8
BITMAP 
00
06
FE
18
FE
60
C0
00
ENDCHAR
STARTCHAR uni2243
ENCODING 223
SWIDTH 1000 0
DWIDTH 8 0
BBX 8 8 0 0
VVECTOR 4 8
SWIDTH1 0 -1000
DWIDTH1 0 -8
BITMAP 
00
30
CC
00
FC
00
FC
00
ENDCHAR
STARTCHAR aacute
ENCODING 224
SWIDTH 1000 0
DWIDTH 8 0
BBX 8 8 0 0
VVECTOR 4 8
SWIDTH1 0 -1000
DWIDTH1 0 -8
BITMAP 
08
10
38
04
3C
44
3C
00
ENDCHAR
STARTCHAR eacute
ENCODING 225
SWIDTH 1000 0
DWIDTH 8 0
BBX 8 8 0 0
VVECTOR 4 8
SWIDTH1 0 -1000
DWIDTH1 0 -8
BITMAP 
08
10
38
44
78
40
3C
00
ENDCHAR
STARTCHAR iacute
ENCODING 226
SWIDTH 1000 0
DWIDTH 8 0
BBX 8 8 0 0
VVECTOR 4 8
SWIDTH1 0 -1000
DWIDTH1 0 -8
BITMAP 
08
10
00
30
10
10
38
00
ENDCHAR
STARTCHAR oacute
ENCODING 227
SWIDTH 1000 0
DWIDTH 8 0
BBX 8 8 0 0
VVECTOR 4 8
SWIDTH1 0 -1000
DWIDTH1 0 -8
BITMAP 
08
10
38
44
44
44
38
00
ENDCHAR
STARTCHAR uacute
ENCODING 228
SWIDTH 1000 0
DWIDTH 8 0
BBX 8 8 0 0
VVECTOR 4 8
SWIDTH1 0 -1000
DWIDTH1 0 -8
BITMAP 
08
10
EE
44
44
44
38
00
ENDCHAR
STARTCHAR acircumflex
ENCODING 229
SWIDTH 1000 0
DWIDTH 8 0
BBX 8 8 0 0
VVECTOR 4 8
SWIDTH1 0 -1000
DWIDTH1 0 -8
BITMAP 
38
44
38
04
3C
44
3C
00
ENDCHAR
STARTCHAR ecircumflex
ENCODING 230
SWIDTH 1000 0
DWIDTH 8 0
BBX 8 8 0 0
VVECTOR 4 8
SWIDTH1 0 -1000
DWIDTH1 0 -8
BITMAP 
38
42
38
44
78
40
3C
00
ENDCHAR
STARTCHAR icircumflex
ENCODING 231
SWIDTH 1000 0
DWIDTH 8 0
BBX 8 8 0 0
VVECTOR 4 8
SWIDTH1 0 -1000
DWIDTH1 0 -8
BITMAP 
38
44
00
30
10
10
38
00
ENDCHAR
STARTCHAR ocircumflex
ENCODING 232
SWIDTH 1000 0
DWIDTH 8 0
BBX 8 8 0 0
VVECTOR 4 8
SWIDTH1 0 -1000
DWIDTH1 0 -8
BITMAP 
38
44
00
38
44
44
38
00
ENDCHAR
STARTCHAR ucircumflex
ENCODING 233
SWIDTH 1000 0
DWIDTH 8 0
BBX 8 8 0 0
VVECTOR 4 8
SWIDTH1 0 -1000
DWIDTH1 0 -8
BITMAP 
38
44
EE
44
44
44
38
00
ENDCHAR
STARTCHAR agrave
ENCODING 234
SWIDTH 1000 0
DWIDTH 8 0
BBX 8 8 0 0
VVECTOR 4 8
SWIDTH1 0 -1000
DWIDTH1 0 -8
BITMAP 
10
08
38
04
3C
44
3C
00
ENDCHAR
STARTCHAR egrave
ENCODING 235
SWIDTH 1000 0
DWIDTH 8 0
BBX 8 8 0 0
VVECTOR 4 8
SWIDTH1 0 -1000
DWIDTH1 0 -8
BITMAP 
10
08
38
44
78
40
3C
00
ENDCHAR
STARTCHAR igrave
ENCODING 236
SWIDTH 1000 0
DWIDTH 8 0
BBX 8 8 0 0
VVECTOR 4 8
SWIDTH1 0 -1000
DWIDTH1 0 -8
BITMAP 
10
18
00
30
10
10
38
00
ENDCHAR
STARTCHAR ograve
ENCODING 237
SWIDTH 1000 0
DWIDTH 8 0
BBX 8 8 0 0
VVECTOR 4 8
SWIDTH1 0 -1000
DWIDTH1 0 -8
BITMAP 
10
08
38
44
44
44
38
00
ENDCHAR
STARTCHAR ugrave
ENCODING 238
SWIDTH 1000 0
DWIDTH 8 0
BBX 8 8 0 0
VVECTOR 4 8
SWIDTH1 0 -1000
DWIDTH1 0 -8
BITMAP 
10
08
EE
44
44
44
38
00
ENDCHAR
STARTCHAR ydieresis
ENCODING 239
SWIDTH 1000 0
DWIDTH 8 0
BBX 8 8 0 0
VVECTOR 4 8
SWIDTH1 0 -1000
DWIDTH1 0 -8
BITMAP 
44
00
EE
44
44
3C
04
38
ENDCHAR
STARTCHAR adieresis
ENCODING 240
SWIDTH 1000 0
DWIDTH 8 0
BBX 8 8 0 0
VVECTOR 4 8
SWIDTH1 0 -1000
DWIDTH1 0 -8
BITMAP 
44
00
38
04
3C
44
3C
00
ENDCHAR
STARTCHAR edieresis
ENCODING 241
SWIDTH 1000 0
DWIDTH 8 0
BBX 8 8 0 0
VVECTOR 4 8
SWIDTH1 0 -1000
DWIDTH1 0 -8
BITMAP 
44
00
38
44
78
40
3C
00
ENDCHAR
STARTCHAR idieresis
ENCODING 242
SWIDTH 1000 0
DWIDTH 8 0
BBX 8 8 0 0
VVECTOR 4 8
SWIDTH1 0 -1000
DWIDTH1 0 -8
BITMAP 
44
10
00
30
10
10
38
00
ENDCHAR
STARTCHAR odieresis
ENCODING 243
SWIDTH 1000 0
DWIDTH 8 0
BBX 8 8 0 0
VVECTOR 4 8
SWIDTH1 0 -1000
DWIDTH1 0 -8
BITMAP 
44
00
38
44
44
44
38
00
ENDCHAR
STARTCHAR udieresis
ENCODING 244
SWIDTH 1000 0
DWIDTH 8 0
BBX 8 8 0 0
VVECTOR 4 8
SWIDTH1 0 -1000
DWIDTH1 0 -8
BITMAP 
44
00
EE
44
44
44
38
00
ENDCHAR
STARTCHAR ccedilla
ENCODING 245
SWIDTH 1000 0
DWIDTH 8 0
BBX 8 8 0 0
VVECTOR 4 8
SWIDTH1 0 -1000
DWIDTH1 0 -8
BITMAP 
00
1C
24
20
24
1C
08
18
ENDCHAR
STARTCHAR ae
ENCODING 246
SWIDTH 1000 0
DWIDTH 8 0
BBX 8 8 0 0
VVECTOR 4 8
SWIDTH1 0 -1000
DWIDTH1 0 -8
BITMAP 
00
00
7E
19
7E
98
7F
00
ENDCHAR
STARTCHAR aring
ENCODING 247
SWIDTH 1000 0
DWIDTH 8 0
BBX 8 8 0 0
VVECTOR 4 8
SWIDTH1 0 -1000
DWIDTH1 0 -8
BITMAP 
10
28
10
38
3C
44
3C
00
ENDCHAR
STARTCHAR oslash
ENCODING 248
SWIDTH 1000 0
DWIDTH 8 0
BBX 8 8 0 0
VVECTOR 4 8
SWIDTH1 0 -1000
DWIDTH1 0 -8
BITMAP 
00
00
04
38
54
64
78
00
ENDCHAR
STARTCHAR ntilde
ENCODING 249
SWIDTH 1000 0
DWIDTH 8 0
BBX 8 8 0 0
VVECTOR 4 8
SWIDTH1 0 -1000
DWIDTH1 0 -8
BITMAP 
14
28
00
78
44
44
EE
00
ENDCHAR
STARTCHAR atilde
ENCODING 250
SWIDTH 1000 0
DWIDTH 8 0
BBX 8 8 0 0
VVECTOR 4 8
SWIDTH1 0 -1000
DWIDTH1 0 -8
BITMAP 
14
28
38
04
3C
44
3C
00
ENDCHAR
STARTCHAR otilde
ENCODING 251
SWIDTH 1000 0
DWIDTH 8 0
BBX 8 8 0 0
VVECTOR 4 8
SWIDTH1 0 -1000
DWIDTH1 0 -8
BITMAP 
14
28
00
38
44
44
38
00
ENDCHAR
STARTCHAR arrowdblright
ENCODING 252
SWIDTH 1000 0
DWIDTH 8 0
BBX 8 8 0 0
VVECTOR 4 8
SWIDTH1 0 -1000
DWIDTH1 0 -8
BITMAP 
80
C0
E0
F0
E0
C0
80
00
ENDCHAR
STARTCHAR arrowdblleft
ENCODING 253
SWIDTH 1000 0
DWIDTH 8 0
BBX 8 8 0 0
VVECTOR 4 8
SWIDTH1 0 -1000
DWIDTH1 0 -8
BITMAP 
02
06
0E
1E
0E
06
02
00
ENDCHAR
STARTCHAR arrowdblboth
ENCODING 254
SWIDTH 1000 0
DWIDTH 8 0
BBX 8 8 0 0
VVECTOR 4 8
SWIDTH1 0 -1000
DWIDTH1 0 -8
BITMAP 
00
24
66
E7
66
24
00
00
ENDCHAR
STARTCHAR equivalence
ENCODING 255
SWIDTH 1000 0
DWIDTH 8 0
BBX 8 8 0 0
VVECTOR 4 8
SWIDTH1 0 -1000
DWIDTH1 0 -8
BITMAP 
00
7E
00
7E
00
7E
00
00
ENDCHAR
STARTCHAR char100
ENCODING 256
SWIDTH 1000 0
DWIDTH 8 0
BBX 8 8 0 0
VVECTOR 4 8
SWIDTH1 0 -1000
DWIDTH1 0 -8
BITMAP 
00
00
50
A8
A8
A8
50
00
ENDCHAR
STARTCHAR char101
ENCODING 257
SWIDTH 1000 0
DWIDTH 8 0
BBX 8 8 0 0
VVECTOR 4 8
SWIDTH1 0 -1000
DWIDTH1 0 -8
BITMAP 
20
50
88
A8
88
50
20
00
ENDCHAR
STARTCHAR char102
ENCODING 258
SWIDTH 1000 0
DWIDTH 8 0
BBX 8 8 0 0
VVECTOR 4 8
SWIDTH1 0 -1000
DWIDTH1 0 -8
BITMAP 
00
F0
90
80
80
80
80
00
ENDCHAR
STARTCHAR char103
ENCODING 259
SWIDTH 1000 0
DWIDTH 8 0
BBX 8 8 0 0
VVECTOR 4 8
SWIDTH1 0 -1000
DWIDTH1 0 -8
BITMAP 
00
20
20
50
50
88
F8
00
ENDCHAR
STARTCHAR char104
ENCODING 260
SWIDTH 1000 0
DWIDTH 8 0
BBX 8 8 0 0
VVECTOR 4 8
SWIDTH1 0 -1000
DWIDTH1 0 -8
BITMAP 
20
50
D8
A8
D8
50
20
00
ENDCHAR
STARTCHAR char105
ENCODING 261
SWIDTH 1000 0
DWIDTH 8 0
BBX 8 8 0 0
VVECTOR 4 8
SWIDTH1 0 -1000
DWIDTH1 0 -8
BITMAP 
00
00
00
50
20
50
00
00
ENDCHAR
STARTCHAR char106
ENCODING 262
SWIDTH 1000 0
DWIDTH 8 0
BBX 8 8 0 0
VVECTOR 4 8
SWIDTH1 0 -1000
DWIDTH1 0 -8
BITMAP 
00
00
20
00
70
00
20
00
ENDCHAR
STARTCHAR char107
ENCODING 263
SWIDTH 1000 0
DWIDTH 8 0
BBX 8 8 0 0
VVECTOR 4 8
SWIDTH1 0 -1000
DWIDTH1 0 -8
BITMAP 
00
00
20
20
00
50
50
00
ENDCHAR
STARTCHAR char108
ENCODING 264
SWIDTH 1000 0
DWIDTH 8 0
BBX 8 8 0 0
VVECTOR 4 8
SWIDTH1 0 -1000
DWIDTH1 0 -8
BITMAP 
00
F8
50
50
50
50
50
00
ENDCHAR
STARTCHAR char109
ENCODING 265
SWIDTH 1000 0
DWIDTH 8 0
BBX 8 8 0 0
VVECTOR 4 8
SWIDTH1 0 -1000
DWIDTH1 0 -8
BITMAP 
00
20
20
20
A8
70
20
00
ENDCHAR
STARTCHAR char10A
ENCODING 266
SWIDTH 1000 0
DWIDTH 8 0
BBX 8 8 0 0
VVECTOR 4 8
SWIDTH1 0 -1000
DWIDTH1 0 -8
BITMAP 
F0
90
40
20
40
90
F0
00
ENDCHAR
STARTCHAR char10B
ENCODING 267
SWIDTH 1000 0
DWIDTH 8 0
BBX 8 8 0 0
VVECTOR 4 8
SWIDTH1 0 -1000
DWIDTH1 0 -8
BITMAP 
00
00
20
40
F8
40
20
00
ENDCHAR
STARTCHAR char10C
ENCODING 268
SWIDTH 1000 0
DWIDTH 8 0
BBX 8 8 0 0
VVECTOR 4 8
SWIDTH1 0 -1000
DWIDTH1 0 -8
BITMAP 
00
00
20
10
F8
10
20
00
ENDCHAR
STARTCHAR char10D
ENCODING 269
SWIDTH 1000 0
DWIDTH 8 0
BBX 8 8 0 0
VVECTOR 4 8
SWIDTH1 0 -1000
DWIDTH1 0 -8
BITMAP 
00
20
20
F8
20
20
F8
00
ENDCHAR
STARTCHAR char10E
ENCODING 270
SWIDTH 1000 0
DWIDTH 8 0
BBX 8 8 0 0
VVECTOR 4 8
SWIDTH1 0 -1000
DWIDTH1 0 -8
BITMAP 
00
00
00
50
F8
50
00
00
ENDCHAR
STARTCHAR char10F
ENCODING 271
SWIDTH 1000 0
DWIDTH 8 0
BBX 8 8 0 0
VVECTOR 4 8
SWIDTH1 0 -1000
DWIDTH1 0 -8
BITMAP 
00
70
88
88
88
50
D8
00
ENDCHAR
STARTCHAR char110
ENCODING 272
SWIDTH 1000 0
DWIDTH 8 0
BBX 8 8 0 0
VVECTOR 4 8
SWIDTH1 0 -1000
DWIDTH1 0 -8
BITMAP 
00
00
58
A0
A0
A0
58
00
ENDCHAR
STARTCHAR char111
ENCODING 273
SWIDTH 1000 0
DWIDTH 8 0
BBX 8 8 0 0
VVECTOR 4 8
SWIDTH1 0 -1000
DWIDTH1 0 -8
BITMAP 
00
60
90
E0
90
90
E0
80
ENDCHAR
STARTCHAR char112
ENCODING 274
SWIDTH 1000 0
DWIDTH 8 0
BBX 8 8 0 0
VVECTOR 4 8
SWIDTH1 0 -1000
DWIDTH1 0 -8
BITMAP 
00
90
50
60
40
40
80
00
ENDCHAR
STARTCHAR char113
ENCODING 275
SWIDTH 1000 0
DWIDTH 8 0
BBX 8 8 0 0
VVECTOR 4 8
SWIDTH1 0 -1000
DWIDTH1 0 -8
BITMAP 
00
70
80
60
90
90
60
00
ENDCHAR
STARTCHAR char114
ENCODING 276
SWIDTH 1000 0
DWIDTH 8 0
BBX 8 8 0 0
VVECTOR 4 8
SWIDTH1 0 -1000
DWIDTH1 0 -8
BITMAP 
00
00
70
80
E0
80
70
00
ENDCHAR
STARTCHAR char115
ENCODING 277
SWIDTH 1000 0
DWIDTH 8 0
BBX 8 8 0 0
VVECTOR 4 8
SWIDTH1 0 -1000
DWIDTH1 0 -8
BITMAP 
00
60
90
F0
90
90
60
00
ENDCHAR
STARTCHAR char116
ENCODING 278
SWIDTH 1000 0
DWIDTH 8 0
BBX 8 8 0 0
VVECTOR 4 8
SWIDTH1 0 -1000
DWIDTH1 0 -8
BITMAP 
C0
20
20
50
50
90
90
00
ENDCHAR
STARTCHAR char117
ENCODING 279
SWIDTH 1000 0
DWIDTH 8 0
BBX 8 8 0 0
VVECTOR 4 8
SWIDTH1 0 -1000
DWIDTH1 0 -8
BITMAP 
00
00
90
90
90
E0
80
80
ENDCHAR
STARTCHAR char118
ENCODING 280
SWIDTH 1000 0
DWIDTH 8 0
BBX 8 8 0 0
VVECTOR 4 8
SWIDTH1 0 -1000
DWIDTH1 0 -8
BITMAP 
00
00
F8
50
50
50
50
00
ENDCHAR
STARTCHAR char119
ENCODING 281
SWIDTH 1000 0
DWIDTH 8 0
BBX 8 8 0 0
VVECTOR 4 8
SWIDTH1 0 -1000
DWIDTH1 0 -8
BITMAP 
00
00
60
90
90
E0
80
80
ENDCHAR
STARTCHAR char11A
ENCODING 282
SWIDTH 1000 0
DWIDTH 8 0
BBX 8 8 0 0
VVECTOR 4 8
SWIDTH1 0 -1000
DWIDTH1 0 -8
BITMAP 
00
00
78
90
90
90
60
00
ENDCHAR
STARTCHAR char11B
ENCODING 283
SWIDTH 1000 0
DWIDTH 8 0
BBX 8 8 0 0
VVECTOR 4 8
SWIDTH1 0 -1000
DWIDTH1 0 -8
BITMAP 
00
00
78
A0
20
20
10
00
ENDCHAR
STARTCHAR char11C
ENCODING 284
SWIDTH 1000 0
DWIDTH 8 0
BBX 8 8 0 0
VVECTOR 4 8
SWIDTH1 0 -1000
DWIDTH1 0 -8
BITMAP 
00
20
70
A8
A8
70
20
00
ENDCHAR
STARTCHAR char11D
ENCODING 285
SWIDTH 1000 0
DWIDTH 8 0
BBX 8 8 0 0
VVECTOR 4 8
SWIDTH1 0 -1000
DWIDTH1 0 -8
BITMAP 
00
00
C8
30
20
60
98
00
ENDCHAR
STARTCHAR char11E
ENCODING 286
SWIDTH 1000 0
DWIDTH 8 0
BBX 8 8 0 0
VVECTOR 4 8
SWIDTH1 0 -1000
DWIDTH1 0 -8
BITMAP 
00
20
A8
A8
A8
70
20
00
ENDCHAR
STARTCHAR char11F
ENCODING 287
SWIDTH 1000 0
DWIDTH 8 0
BBX 8 8 0 0
VVECTOR 4 8
SWIDTH1 0 -1000
DWIDTH1 0 -8
BITMAP 
00
00
50
88
A8
A8
50
00
ENDCHAR
STARTCHAR char120
ENCODING 288
SWIDTH 1000 0
DWIDTH 8 0
BBX 8 8 0 0
VVECTOR 4 8
SWIDTH1 0 -1000
DWIDTH1 0 -8
BITMAP 
00
00
00
00
00
00
00
00
ENDCHAR
STARTCHAR char121
ENCODING 289
SWIDTH 1000 0
DWIDTH 8 0
BBX 8 8 0 0
VVECTOR 4 8
SWIDTH1 0 -1000
DWIDTH1 0 -8
BITMAP 
00
40
40
40
40
00
40
00
ENDCHAR
STARTCHAR char122
ENCODING 290
SWIDTH 1000 0
DWIDTH 8 0
BBX 8 8 0 0
VVECTOR 4 8
SWIDTH1 0 -1000
DWIDTH1 0 -8
BITMAP 
00
A0
A0
00
00
00
00
00
ENDCHAR
STARTCHAR char123
ENCODING 291
SWIDTH 1000 0
DWIDTH 8 0
BBX 8 8 0 0
VVECTOR 4 8
SWIDTH1 0 -1000
DWIDTH1 0 -8
BITMAP 
00
A0
F0
A0
A0
F0
A0
00
ENDCHAR
STARTCHAR char124
ENCODING 292
SWIDTH 1000 0
DWIDTH 8 0
BBX 8 8 0 0
VVECTOR 4 8
SWIDTH1 0 -1000
DWIDTH1 0 -8
BITMAP 
00
40
F0
C0
F0
50
F0
40
ENDCHAR
STARTCHAR char125
ENCODING 293
SWIDTH 1000 0
DWIDTH 8 0
BBX 8 8 0 0
VVECTOR 4 8
SWIDTH1 0 -1000
DWIDTH1 0 -8
BITMAP 
00
90
A0
40
40
B0
B0
00
ENDCHAR
STARTCHAR char126
ENCODING 294
SWIDTH 1000 0
DWIDTH 8 0
BBX 8 8 0 0
VVECTOR 4 8
SWIDTH1 0 -1000
DWIDTH1 0 -8
BITMAP 
00
40
E0
40
D0
A0
D0
00
ENDCHAR
STARTCHAR char127
ENCODING 295
SWIDTH 1000 0
DWIDTH 8 0
BBX 8 8 0 0
VVECTOR 4 8
SWIDTH1 0 -1000
DWIDTH1 0 -8
BITMAP 
00
40
40
00
00
00
00
00
ENDCHAR
STARTCHAR char128
ENCODING 296
SWIDTH 1000 0
DWIDTH 8 0
BBX 8 8 0 0
VVECTOR 4 8
SWIDTH1 0 -1000
DWIDTH1 0 -8
BITMAP 
00
20
40
40
40
40
20
00
ENDCHAR
STARTCHAR char129
ENCODING 297
SWIDTH 1000 0
DWIDTH 8 0
BBX 8 8 0 0
VVECTOR 4 8
SWIDTH1 0 -1000
DWIDTH1 0 -8
BITMAP 
00
80
40
40
40
40
80
00
ENDCHAR
STARTCHAR char12A
ENCODING 298
SWIDTH 1000 0
DWIDTH 8 0
BBX 8 8 0 0
VVECTOR 4 8
SWIDTH1 0 -1000
DWIDTH1 0 -8
BITMAP 
00
00
A0
40
E0
40
A0
00
ENDCHAR
STARTCHAR char12B
ENCODING 299
SWIDTH 1000 0
DWIDTH 8 0
BBX 8 8 0 0
VVECTOR 4 8
SWIDTH1 0 -1000
DWIDTH1 0 -8
BITMAP 
00
00
40
40
F0
40
40
00
ENDCHAR
STARTCHAR char12C
ENCODING 300
SWIDTH 1000 0
DWIDTH 8 0
BBX 8 8 0 0
VVECTOR 4 8
SWIDTH1 0 -1000
DWIDTH1 0 -8
BITMAP 
00
00
00
00
00
40
40
80
ENDCHAR
STARTCHAR char12D
ENCODING 301
SWIDTH 1000 0
DWIDTH 8 0
BBX 8 8 0 0
VVECTOR 4 8
SWIDTH1 0 -1000
DWIDTH1 0 -8
BITMAP 
00
00
00
00
F0
00
00
00
ENDCHAR
STARTCHAR char12E
ENCODING 302
SWIDTH 1000 0
DWIDTH 8 0
BBX 8 8 0 0
VVECTOR 4 8
SWIDTH1 0 -1000
DWIDTH1 0 -8
BITMAP 
00
00
00
00
00
60
60
00
ENDCHAR
STARTCHAR char12F
ENCODING 303
SWIDTH 1000 0
DWIDTH 8 0
BBX 8 8 0 0
VVECTOR 4 8
SWIDTH1 0 -1000
DWIDTH1 0 -8
BITMAP 
00
00
10
20
40
40
80
00
ENDCHAR
STARTCHAR char130
ENCODING 304
SWIDTH 1000 0
DWIDTH 8 0
BBX 8 8 0 0
VVECTOR 4 8
SWIDTH1 0 -1000
DWIDTH1 0 -8
BITMAP 
00
E0
B0
D0
D0
90
E0
00
ENDCHAR
STARTCHAR char131
ENCODING 305
SWIDTH 1000 0
DWIDTH 8 0
BBX 8 8 0 0
VVECTOR 4 8
SWIDTH1 0 -1000
DWIDTH1 0 -8
BITMAP 
00
40
C0
40
40
40
F0
00
ENDCHAR
STARTCHAR char132
ENCODING 306
SWIDTH 1000 0
DWIDTH 8 0
BBX 8 8 0 0
VVECTOR 4 8
SWIDTH1 0 -1000
DWIDTH1 0 -8
BITMAP 
00
E0
90
10
E0
80
F0
00
ENDCHAR
STARTCHAR char133
ENCODING 307
SWIDTH 1000 0
DWIDTH 8 0
BBX 8 8 0 0
VVECTOR 4 8
SWIDTH1 0 -1000
DWIDTH1 0 -8
BITMAP 
00
E0
90
60
10
90
E0
00
ENDCHAR
STARTCHAR char134
ENCODING 308
SWIDTH 1000 0
DWIDTH 8 0
BBX 8 8 0 0
VVECTOR 4 8
SWIDTH1 0 -1000
DWIDTH1 0 -8
BITMAP 
00
60
60
A0
A0
F0
20
00
ENDCHAR
STARTCHAR char135
ENCODING 309
SWIDTH 1000 0
DWIDTH 8 0
BBX 8 8 0 0
VVECTOR 4 8
SWIDTH1 0 -1000
DWIDTH1 0 -8
BITMAP 
00
F0
80
E0
10
90
E0
00
ENDCHAR
STARTCHAR char136
ENCODING 310
SWIDTH 1000 0
DWIDTH 8 0
BBX 8 8 0 0
VVECTOR 4 8
SWIDTH1 0 -1000
DWIDTH1 0 -8
BITMAP 
00
60
80
E0
90
90
E0
00
ENDCHAR
STARTCHAR char137
ENCODING 311
SWIDTH 1000 0
DWIDTH 8 0
BBX 8 8 0 0
VVECTOR 4 8
SWIDTH1 0 -1000
DWIDTH1 0 -8
BITMAP 
00
F0
10
20
40
40
40
00
ENDCHAR
STARTCHAR char138
ENCODING 312
SWIDTH 1000 0
DWIDTH 8 0
BBX 8 8 0 0
VVECTOR 4 8
SWIDTH1 0 -1000
DWIDTH1 0 -8
BITMAP 
00
60
90
60
90
90
60
00
ENDCHAR
STARTCHAR char139
ENCODING 313
SWIDTH 1000 0
DWIDTH 8 0
BBX 8 8 0 0
VVECTOR 4 8
SWIDTH1 0 -1000
DWIDTH1 0 -8
BITMAP 
00
60
90
90
70
10
E0
00
ENDCHAR
STARTCHAR char13A
ENCODING 314
SWIDTH 1000 0
DWIDTH 8 0
BBX 8 8 0 0
VVECTOR 4 8
SWIDTH1 0 -1000
DWIDTH1 0 -8
BITMAP 
00
00
00
40
00
00
40
00
ENDCHAR
STARTCHAR char13B
ENCODING 315
SWIDTH 1000 0
DWIDTH 8 0
BBX 8 8 0 0
VVECTOR 4 8
SWIDTH1 0 -1000
DWIDTH1 0 -8
BITMAP 
00
00
40
00
00
40
40
80
ENDCHAR
STARTCHAR char13C
ENCODING 316
SWIDTH 1000 0
DWIDTH 8 0
BBX 8 8 0 0
VVECTOR 4 8
SWIDTH1 0 -1000
DWIDTH1 0 -8
BITMAP 
00
10
30
60
C0
60
30
10
ENDCHAR
STARTCHAR char13D
ENCODING 317
SWIDTH 1000 0
DWIDTH 8 0
BBX 8 8 0 0
VVECTOR 4 8
SWIDTH1 0 -1000
DWIDTH1 0 -8
BITMAP 
00
00
00
F0
00
F0
00
00
ENDCHAR
STARTCHAR char13E
ENCODING 318
SWIDTH 1000 0
DWIDTH 8 0
BBX 8 8 0 0
VVECTOR 4 8
SWIDTH1 0 -1000
DWIDTH1 0 -8
BITMAP 
00
80
C0
60
30
60
C0
80
ENDCHAR
STARTCHAR char13F
ENCODING 319
SWIDTH 1000 0
DWIDTH 8 0
BBX 8 8 0 0
VVECTOR 4 8
SWIDTH1 0 -1000
DWIDTH1 0 -8
BITMAP 
00
E0
90
20
40
00
40
00
ENDCHAR
STARTCHAR char140
ENCODING 320
SWIDTH 1000 0
DWIDTH 8 0
BBX 8 8 0 0
VVECTOR 4 8
SWIDTH1 0 -1000
DWIDTH1 0 -8
BITMAP 
00
E0
D0
F0
F0
80
E0
00
ENDCHAR
STARTCHAR char141
ENCODING 321
SWIDTH 1000 0
DWIDTH 8 0
BBX 8 8 0 0
VVECTOR 4 8
SWIDTH1 0 -1000
DWIDTH1 0 -8
BITMAP 
00
60
90
90
F0
90
90
00
ENDCHAR
STARTCHAR char142
ENCODING 322
SWIDTH 1000 0
DWIDTH 8 0
BBX 8 8 0 0
VVECTOR 4 8
SWIDTH1 0 -1000
DWIDTH1 0 -8
BITMAP 
00
E0
90
E0
90
90
E0
00
ENDCHAR
STARTCHAR char143
ENCODING 323
SWIDTH 1000 0
DWIDTH 8 0
BBX 8 8 0 0
VVECTOR 4 8
SWIDTH1 0 -1000
DWIDTH1 0 -8
BITMAP 
00
E0
B0
80
80
B0
E0
00
ENDCHAR
STARTCHAR char144
ENCODING 324
SWIDTH 1000 0
DWIDTH 8 0
BBX 8 8 0 0
VVECTOR 4 8
SWIDTH1 0 -1000
DWIDTH1 0 -8
BITMAP 
00
C0
A0
90
90
A0
C0
00
ENDCHAR
STARTCHAR char145
ENCODING 325
SWIDTH 1000 0
DWIDTH 8 0
BBX 8 8 0 0
VVECTOR 4 8
SWIDTH1 0 -1000
DWIDTH1 0 -8
BITMAP 
00
F0
90
C0
C0
90
F0
00
ENDCHAR
STARTCHAR char146
ENCODING 326
SWIDTH 1000 0
DWIDTH 8 0
BBX 8 8 0 0
VVECTOR 4 8
SWIDTH1 0 -1000
DWIDTH1 0 -8
BITMAP 
00
F0
90
C0
C0
80
80
00
ENDCHAR
STARTCHAR char147
ENCODING 327
SWIDTH 1000 0
DWIDTH 8 0
BBX 8 8 0 0
VVECTOR 4 8
SWIDTH1 0 -1000
DWIDTH1 0 -8
BITMAP 
00
E0
B0
80
F0
B0
E0
00
ENDCHAR
STARTCHAR char148
ENCODING 328
SWIDTH 1000 0
DWIDTH 8 0
BBX 8 8 0 0
VVECTOR 4 8
SWIDTH1 0 -1000
DWIDTH1 0 -8
BITMAP 
00
B0
90
F0
90
90
B0
00
ENDCHAR
STARTCHAR char149
ENCODING 329
SWIDTH 1000 0
DWIDTH 8 0
BBX 8 8 0 0
VVECTOR 4 8
SWIDTH1 0 -1000
DWIDTH1 0 -8
BITMAP 
00
F0
D0
40
40
D0
F0
00
ENDCHAR
STARTCHAR char14A
ENCODING 330
SWIDTH 1000 0
DWIDTH 8 0
BBX 8 8 0 0
VVECTOR 4 8
SWIDTH1 0 -1000
DWIDTH1 0 -8
BITMAP 
00
38
10
10
90
90
E0
00
ENDCHAR
STARTCHAR char14B
ENCODING 331
SWIDTH 1000 0
DWIDTH 8 0
BBX 8 8 0 0
VVECTOR 4 8
SWIDTH1 0 -1000
DWIDTH1 0 -8
BITMAP 
00
A0
C0
C0
C0
A0
B0
00
ENDCHAR
STARTCHAR char14C
ENCODING 332
SWIDTH 1000 0
DWIDTH 8 0
BBX 8 8 0 0
VVECTOR 4 8
SWIDTH1 0 -1000
DWIDTH1 0 -8
BITMAP 
00
80
80
80
80
90
F0
00
ENDCHAR
STARTCHAR char14D
ENCODING 333
SWIDTH 1000 0
DWIDTH 8 0
BBX 8 8 0 0
VVECTOR 4 8
SWIDTH1 0 -1000
DWIDTH1 0 -8
BITMAP 
00
88
D8
A8
88
88
88
00
ENDCHAR
STARTCHAR char14E
ENCODING 334
SWIDTH 1000 0
DWIDTH 8 0
BBX 8 8 0 0
VVECTOR 4 8
SWIDTH1 0 -1000
DWIDTH1 0 -8
BITMAP 
00
B8
90
D0
D0
B0
B8
00
ENDCHAR
STARTCHAR char14F
ENCODING 335
SWIDTH 1000 0
DWIDTH 8 0
BBX 8 8 0 0
VVECTOR 4 8
SWIDTH1 0 -1000
DWIDTH1 0 -8
BITMAP 
00
60
90
90
90
90
60
00
ENDCHAR
STARTCHAR char150
ENCODING 336
SWIDTH 1000 0
DWIDTH 8 0
BBX 8 8 0 0
VVECTOR 4 8
SWIDTH1 0 -1000
DWIDTH1 0 -8
BITMAP 
00
E0
90
90
E0
80
80
00
ENDCHAR
STARTCHAR char151
ENCODING 337
SWIDTH 1000 0
DWIDTH 8 0
BBX 8 8 0 0
VVECTOR 4 8
SWIDTH1 0 -1000
DWIDTH1 0 -8
BITMAP 
00
60
90
90
B0
B0
60
00
ENDCHAR
STARTCHAR char152
ENCODING 338
SWIDTH 1000 0
DWIDTH 8 0
BBX 8 8 0 0
VVECTOR 4 8
SWIDTH1 0 -1000
DWIDTH1 0 -8
BITMAP 
00
E0
90
90
E0
A0
B0
00
ENDCHAR
STARTCHAR char153
ENCODING 339
SWIDTH 1000 0
DWIDTH 8 0
BBX 8 8 0 0
VVECTOR 4 8
SWIDTH1 0 -1000
DWIDTH1 0 -8
BITMAP 
00
E0
80
E0
10
90
E0
00
ENDCHAR
STARTCHAR char154
ENCODING 340
SWIDTH 1000 0
DWIDTH 8 0
BBX 8 8 0 0
VVECTOR 4 8
SWIDTH1 0 -1000
DWIDTH1 0 -8
BITMAP 
00
F0
50
40
40
40
C0
00
ENDCHAR
STARTCHAR char155
ENCODING 341
SWIDTH 1000 0
DWIDTH 8 0
BBX 8 8 0 0
VVECTOR 4 8
SWIDTH1 0 -1000
DWIDTH1 0 -8
BITMAP 
00
90
90
90
90
90
70
00
ENDCHAR
STARTCHAR char156
ENCODING 342
SWIDTH 1000 0
DWIDTH 8 0
BBX 8 8 0 0
VVECTOR 4 8
SWIDTH1 0 -1000
DWIDTH1 0 -8
BITMAP 
00
90
90
90
90
A0
40
00
ENDCHAR
STARTCHAR char157
ENCODING 343
SWIDTH 1000 0
DWIDTH 8 0
BBX 8 8 0 0
VVECTOR 4 8
SWIDTH1 0 -1000
DWIDTH1 0 -8
BITMAP 
00
90
90
90
90
D0
A0
00
ENDCHAR
STARTCHAR char158
ENCODING 344
SWIDTH 1000 0
DWIDTH 8 0
BBX 8 8 0 0
VVECTOR 4 8
SWIDTH1 0 -1000
DWIDTH1 0 -8
BITMAP 
00
B0
A0
40
40
A0
B0
00
ENDCHAR
STARTCHAR char159
ENCODING 345
SWIDTH 1000 0
DWIDTH 8 0
BBX 8 8 0 0
VVECTOR 4 8
SWIDTH1 0 -1000
DWIDTH1 0 -8
BITMAP 
00
B0
A0
C0
40
40
C0
00
ENDCHAR
STARTCHAR char15A
ENCODING 346
SWIDTH 1000 0
DWIDTH 8 0
BBX 8 8 0 0
VVECTOR 4 8
SWIDTH1 0 -1000
DWIDTH1 0 -8
BITMAP 
00
F0
A0
40
40
90
F0
00
ENDCHAR
STARTCHAR char15B
ENCODING 347
SWIDTH 1000 0
DWIDTH 8 0
BBX 8 8 0 0
VVECTOR 4 8
SWIDTH1 0 -1000
DWIDTH1 0 -8
BITMAP 
00
70
40
40
40
40
70
00
ENDCHAR
STARTCHAR char15C
ENCODING 348
SWIDTH 1000 0
DWIDTH 8 0
BBX 8 8 0 0
VVECTOR 4 8
SWIDTH1 0 -1000
DWIDTH1 0 -8
BITMAP 
00
00
10
20
40
40
80
00
ENDCHAR
STARTCHAR char15D
ENCODING 349
SWIDTH 1000 0
DWIDTH 8 0
BBX 8 8 0 0
VVECTOR 4 8
SWIDTH1 0 -1000
DWIDTH1 0 -8
BITMAP 
00
E0
20
20
20
20
E0
00
ENDCHAR
STARTCHAR char15E
ENCODING 350
SWIDTH 1000 0
DWIDTH 8 0
BBX 8 8 0 0
VVECTOR 4 8
SWIDTH1 0 -1000
DWIDTH1 0 -8
BITMAP 
20
50
88
00
00
00
00
00
ENDCHAR
STARTCHAR char15F
ENCODING 351
SWIDTH 1000 0
DWIDTH 8 0
BBX 8 8 0 0
VVECTOR 4 8
SWIDTH1 0 -1000
DWIDTH1 0 -8
BITMAP 
00
00
00
00
00
00
00
F8
ENDCHAR
STARTCHAR char160
ENCODING 352
SWIDTH 1000 0
DWIDTH 8 0
BBX 8 8 0 0
VVECTOR 4 8
SWIDTH1 0 -1000
DWIDTH1 0 -8
BITMAP 
00
40
20
00
00
00
00
00
ENDCHAR
STARTCHAR char161
ENCODING 353
SWIDTH 1000 0
DWIDTH 8 0
BBX 8 8 0 0
VVECTOR 4 8
SWIDTH1 0 -1000
DWIDTH1 0 -8
BITMAP 
00
00
C0
20
E0
A0
E0
00
ENDCHAR
STARTCHAR char162
ENCODING 354
SWIDTH 1000 0
DWIDTH 8 0
BBX 8 8 0 0
VVECTOR 4 8
SWIDTH1 0 -1000
DWIDTH1 0 -8
BITMAP 
00
C0
80
E0
90
90
E0
00
ENDCHAR
STARTCHAR char163
ENCODING 355
SWIDTH 1000 0
DWIDTH 8 0
BBX 8 8 0 0
VVECTOR 4 8
SWIDTH1 0 -1000
DWIDTH1 0 -8
BITMAP 
00
00
60
A0
80
A0
60
00
ENDCHAR
STARTCHAR char164
ENCODING 356
SWIDTH 1000 0
DWIDTH 8 0
BBX 8 8 0 0
VVECTOR 4 8
SWIDTH1 0 -1000
DWIDTH1 0 -8
BITMAP 
00
70
20
E0
A0
A0
E0
00
ENDCHAR
STARTCHAR char165
ENCODING 357
SWIDTH 1000 0
DWIDTH 8 0
BBX 8 8 0 0
VVECTOR 4 8
SWIDTH1 0 -1000
DWIDTH1 0 -8
BITMAP 
00
00
C0
A0
C0
80
E0
00
ENDCHAR
STARTCHAR char166
ENCODING 358
SWIDTH 1000 0
DWIDTH 8 0
BBX 8 8 0 0
VVECTOR 4 8
SWIDTH1 0 -1000
DWIDTH1 0 -8
BITMAP 
00
60
40
C0
40
40
C0
00
ENDCHAR
STARTCHAR char167
ENCODING 359
SWIDTH 1000 0
DWIDTH 8 0
BBX 8 8 0 0
VVECTOR 4 8
SWIDTH1 0 -1000
DWIDTH1 0 -8
BITMAP 
00
00
E0
A0
A0
E0
20
C0
ENDCHAR
STARTCHAR char168
ENCODING 360
SWIDTH 1000 0
DWIDTH 8 0
BBX 8 8 0 0
VVECTOR 4 8
SWIDTH1 0 -1000
DWIDTH1 0 -8
BITMAP 
00
80
80
C0
A0
A0
F0
00
ENDCHAR
STARTCHAR char169
ENCODING 361
SWIDTH 1000 0
DWIDTH 8 0
BBX 8 8 0 0
VVECTOR 4 8
SWIDTH1 0 -1000
DWIDTH1 0 -8
BITMAP 
00
40
00
C0
40
40
C0
00
ENDCHAR
STARTCHAR char16A
ENCODING 362
SWIDTH 1000 0
DWIDTH 8 0
BBX 8 8 0 0
VVECTOR 4 8
SWIDTH1 0 -1000
DWIDTH1 0 -8
BITMAP 
00
20
00
20
20
20
A0
40
ENDCHAR
STARTCHAR char16B
ENCODING 363
SWIDTH 1000 0
DWIDTH 8 0
BBX 8 8 0 0
VVECTOR 4 8
SWIDTH1 0 -1000
DWIDTH1 0 -8
BITMAP 
00
80
C0
A0
C0
A0
A0
00
ENDCHAR
STARTCHAR char16C
ENCODING 364
SWIDTH 1000 0
DWIDTH 8 0
BBX 8 8 0 0
VVECTOR 4 8
SWIDTH1 0 -1000
DWIDTH1 0 -8
BITMAP 
00
40
40
40
40
40
60
00
ENDCHAR
STARTCHAR char16D
ENCODING 365
SWIDTH 1000 0
DWIDTH 8 0
BBX 8 8 0 0
VVECTOR 4 8
SWIDTH1 0 -1000
DWIDTH1 0 -8
BITMAP 
00
00
F0
A8
A8
A8
A8
00
ENDCHAR
STARTCHAR char16E
ENCODING 366
SWIDTH 1000 0
DWIDTH 8 0
BBX 8 8 0 0
VVECTOR 4 8
SWIDTH1 0 -1000
DWIDTH1 0 -8
BITMAP 
00
00
C0
A0
A0
A0
B0
00
ENDCHAR
STARTCHAR char16F
ENCODING 367
SWIDTH 1000 0
DWIDTH 8 0
BBX 8 8 0 0
VVECTOR 4 8
SWIDTH1 0 -1000
DWIDTH1 0 -8
BITMAP 
00
00
40
A0
A0
A0
40
00
ENDCHAR
STARTCHAR char170
ENCODING 368
SWIDTH 1000 0
DWIDTH 8 0
BBX 8 8 0 0
VVECTOR 4 8
SWIDTH1 0 -1000
DWIDTH1 0 -8
BITMAP 
00
00
C0
A0
A0
C0
80
80
ENDCHAR
STARTCHAR char171
ENCODING 369
SWIDTH 1000 0
DWIDTH 8 0
BBX 8 8 0 0
VVECTOR 4 8
SWIDTH1 0 -1000
DWIDTH1 0 -8
BITMAP 
00
00
E0
A0
A0
E0
20
30
ENDCHAR
STARTCHAR char172
ENCODING 370
SWIDTH 1000 0
DWIDTH 8 0
BBX 8 8 0 0
VVECTOR 4 8
SWIDTH1 0 -1000
DWIDTH1 0 -8
BITMAP 
00
00
60
A0
80
80
C0
00
ENDCHAR
STARTCHAR char173
ENCODING 371
SWIDTH 1000 0
DWIDTH 8 0
BBX 8 8 0 0
VVECTOR 4 8
SWIDTH1 0 -1000
DWIDTH1 0 -8
BITMAP 
00
00
60
80
C0
20
C0
00
ENDCHAR
STARTCHAR char174
ENCODING 372
SWIDTH 1000 0
DWIDTH 8 0
BBX 8 8 0 0
VVECTOR 4 8
SWIDTH1 0 -1000
DWIDTH1 0 -8
BITMAP 
00
40
E0
40
40
50
20
00
ENDCHAR
STARTCHAR char175
ENCODING 373
SWIDTH 1000 0
DWIDTH 8 0
BBX 8 8 0 0
VVECTOR 4 8
SWIDTH1 0 -1000
DWIDTH1 0 -8
BITMAP 
00
00
B0
A0
A0
A0
C0
00
ENDCHAR
STARTCHAR char176
ENCODING 374
SWIDTH 1000 0
DWIDTH 8 0
BBX 8 8 0 0
VVECTOR 4 8
SWIDTH1 0 -1000
DWIDTH1 0 -8
BITMAP 
00
00
90
90
90
A0
40
00
ENDCHAR
STARTCHAR char177
ENCODING 375
SWIDTH 1000 0
DWIDTH 8 0
BBX 8 8 0 0
VVECTOR 4 8
SWIDTH1 0 -1000
DWIDTH1 0 -8
BITMAP 
00
00
A8
A8
A8
A8
70
00
ENDCHAR
STARTCHAR char178
ENCODING 376
SWIDTH 1000 0
DWIDTH 8 0
BBX 8 8 0 0
VVECTOR 4 8
SWIDTH1 0 -1000
DWIDTH1 0 -8
BITMAP 
00
00
A0
C0
40
C0
A0
00
ENDCHAR
STARTCHAR char179
ENCODING 377
SWIDTH 1000 0
DWIDTH 8 0
BBX 8 8 0 0
VVECTOR 4 8
SWIDTH1 0 -1000
DWIDTH1 0 -8
BITMAP 
00
00
B0
A0
A0
E0
20
C0
ENDCHAR
STARTCHAR char17A
ENCODING 378
SWIDTH 1000 0
DWIDTH 8 0
BBX 8 8 0 0
VVECTOR 4 8
SWIDTH1 0 -1000
DWIDTH1 0 -8
BITMAP 
00
00
F0
10
20
40
F0
00
ENDCHAR
STARTCHAR char17B
ENCODING 379
SWIDTH 1000 0
DWIDTH 8 0
BBX 8 8 0 0
VVECTOR 4 8
SWIDTH1 0 -1000
DWIDTH1 0 -8
BITMAP 
00
30
40
80
40
40
30
00
ENDCHAR
STARTCHAR char17C
ENCODING 380
SWIDTH 1000 0
DWIDTH 8 0
BBX 8 8 0 0
VVECTOR 4 8
SWIDTH1 0 -1000
DWIDTH1 0 -8
BITMAP 
00
20
20
20
20
20
20
00
ENDCHAR
STARTCHAR char17D
ENCODING 381
SWIDTH 1000 0
DWIDTH 8 0
BBX 8 8 0 0
VVECTOR 4 8
SWIDTH1 0 -1000
DWIDTH1 0 -8
BITMAP 
00
C0
20
10
20
20
C0
00
ENDCHAR
STARTCHAR char17E
ENCODING 382
SWIDTH 1000 0
DWIDTH 8 0
BBX 8 8 0 0
VVECTOR 4 8
SWIDTH1 0 -1000
DWIDTH1 0 -8
BITMAP 
00
A0
50
00
00
00
00
00
ENDCHAR
STARTCHAR char17F
ENCODING 383
SWIDTH 1000 0
DWIDTH 8 0
BBX 8 8 0 0
VVECTOR 4 8
SWIDTH1 0 -1000
DWIDTH1 0 -8
BITMAP 
00
40
A0
A0
A0
A0
40
00
ENDCHAR
STARTCHAR char180
ENCODING 384
SWIDTH 1000 0
DWIDTH 8 0
BBX 8 8 0 0
VVECTOR 4 8
SWIDTH1 0 -1000
DWIDTH1 0 -8
BITMAP 
00
00
70
70
70
70
00
00
ENDCHAR
STARTCHAR char181
ENCODING 385
SWIDTH 1000 0
DWIDTH 8 0
BBX 8 8 0 0
VVECTOR 4 8
SWIDTH1 0 -1000
DWIDTH1 0 -8
BITMAP 
20
20
F8
00
00
F8
00
00
ENDCHAR
STARTCHAR char182
ENCODING 386
SWIDTH 1000 0
DWIDTH 8 0
BBX 8 8 0 0
VVECTOR 4 8
SWIDTH1 0 -1000
DWIDTH1 0 -8
BITMAP 
50
50
50
58
50
50
50
50
ENDCHAR
STARTCHAR char183
ENCODING 387
SWIDTH 1000 0
DWIDTH 8 0
BBX 8 8 0 0
VVECTOR 4 8
SWIDTH1 0 -1000
DWIDTH1 0 -8
BITMAP 
50
50
48
20
20
18
00
00
ENDCHAR
STARTCHAR char184
ENCODING 388
SWIDTH 1000 0
DWIDTH 8 0
BBX 8 8 0 0
VVECTOR 4 8
SWIDTH1 0 -1000
DWIDTH1 0 -8
BITMAP 
00
00
F8
00
00
F8
20
20
ENDCHAR
STARTCHAR char185
ENCODING 389
SWIDTH 1000 0
DWIDTH 8 0
BBX 8 8 0 0
VVECTOR 4 8
SWIDTH1 0 -1000
DWIDTH1 0 -8
BITMAP 
50
50
50
50
50
50
50
50
ENDCHAR
STARTCHAR char186
ENCODING 390
SWIDTH 1000 0
DWIDTH 8 0
BBX 8 8 0 0
VVECTOR 4 8
SWIDTH1 0 -1000
DWIDTH1 0 -8
BITMAP 
00
00
18
20
20
48
50
50
ENDCHAR
STARTCHAR char187
ENCODING 391
SWIDTH 1000 0
DWIDTH 8 0
BBX 8 8 0 0
VVECTOR 4 8
SWIDTH1 0 -1000
DWIDTH1 0 -8
BITMAP 
50
50
58
40
40
58
50
50
ENDCHAR
STARTCHAR char188
ENCODING 392
SWIDTH 1000 0
DWIDTH 8 0
BBX 8 8 0 0
VVECTOR 4 8
SWIDTH1 0 -1000
DWIDTH1 0 -8
BITMAP 
50
50
50
D0
D0
50
50
50
ENDCHAR
STARTCHAR char189
ENCODING 393
SWIDTH 1000 0
DWIDTH 8 0
BBX 8 8 0 0
VVECTOR 4 8
SWIDTH1 0 -1000
DWIDTH1 0 -8
BITMAP 
50
50
90
20
20
C0
00
00
ENDCHAR
STARTCHAR char18A
ENCODING 394
SWIDTH 1000 0
DWIDTH 8 0
BBX 8 8 0 0
VVECTOR 4 8
SWIDTH1 0 -1000
DWIDTH1 0 -8
BITMAP 
00
00
F8
00
00
F8
00
00
ENDCHAR
STARTCHAR char18B
ENCODING 395
SWIDTH 1000 0
DWIDTH 8 0
BBX 8 8 0 0
VVECTOR 4 8
SWIDTH1 0 -1000
DWIDTH1 0 -8
BITMAP 
50
50
D8
00
00
F8
00
00
ENDCHAR
STARTCHAR char18C
ENCODING 396
SWIDTH 1000 0
DWIDTH 8 0
BBX 8 8 0 0
VVECTOR 4 8
SWIDTH1 0 -1000
DWIDTH1 0 -8
BITMAP 
00
00
C0
20
20
90
50
50
ENDCHAR
STARTCHAR char18D
ENCODING 397
SWIDTH 1000 0
DWIDTH 8 0
BBX 8 8 0 0
VVECTOR 4 8
SWIDTH1 0 -1000
DWIDTH1 0 -8
BITMAP 
50
50
D0
10
10
D0
50
50
ENDCHAR
STARTCHAR char18E
ENCODING 398
SWIDTH 1000 0
DWIDTH 8 0
BBX 8 8 0 0
VVECTOR 4 8
SWIDTH1 0 -1000
DWIDTH1 0 -8
BITMAP 
00
00
F8
00
00
D8
50
50
ENDCHAR
STARTCHAR char18F
ENCODING 399
SWIDTH 1000 0
DWIDTH 8 0
BBX 8 8 0 0
VVECTOR 4 8
SWIDTH1 0 -1000
DWIDTH1 0 -8
BITMAP 
50
50
D8
00
00
D8
50
50
ENDCHAR
STARTCHAR char190
ENCODING 400
SWIDTH 1000 0
DWIDTH 8 0
BBX 8 8 0 0
VVECTOR 4 8
SWIDTH1 0 -1000
DWIDTH1 0 -8
BITMAP 
00
00
00
20
20
00
00
00
ENDCHAR
STARTCHAR char191
ENCODING 401
SWIDTH 1000 0
DWIDTH 8 0
BBX 8 8 0 0
VVECTOR 4 8
SWIDTH1 0 -1000
DWIDTH1 0 -8
BITMAP 
20
20
20
20
00
00
00
00
ENDCHAR
STARTCHAR char192
ENCODING 402
SWIDTH 1000 0
DWIDTH 8 0
BBX 8 8 0 0
VVECTOR 4 8
SWIDTH1 0 -1000
DWIDTH1 0 -8
BITMAP 
00
00
00
38
38
00
00
00
ENDCHAR
STARTCHAR char193
ENCODING 403
SWIDTH 1000 0
DWIDTH 8 0
BBX 8 8 0 0
VVECTOR 4 8
SWIDTH1 0 -1000
DWIDTH1 0 -8
BITMAP 
20
20
30
18
08
00
00
00
ENDCHAR
STARTCHAR char194
ENCODING 404
SWIDTH 1000 0
DWIDTH 8 0
BBX 8 8 0 0
VVECTOR 4 8
SWIDTH1 0 -1000
DWIDTH1 0 -8
BITMAP 
00
00
00
00
20
20
20
20
ENDCHAR
STARTCHAR char195
ENCODING 405
SWIDTH 1000 0
DWIDTH 8 0
BBX 8 8 0 0
VVECTOR 4 8
SWIDTH1 0 -1000
DWIDTH1 0 -8
BITMAP 
20
20
20
20
20
20
20
20
ENDCHAR
STARTCHAR char196
ENCODING 406
SWIDTH 1000 0
DWIDTH 8 0
BBX 8 8 0 0
VVECTOR 4 8
SWIDTH1 0 -1000
DWIDTH1 0 -8
BITMAP 
00
00
00
08
18
30
20
20
ENDCHAR
STARTCHAR char197
ENCODING 407
SWIDTH 1000 0
DWIDTH 8 0
BBX 8 8 0 0
VVECTOR 4 8
SWIDTH1 0 -1000
DWIDTH1 0 -8
BITMAP 
20
20
20
38
38
20
20
20
ENDCHAR
STARTCHAR char198
ENCODING 408
SWIDTH 1000 0
DWIDTH 8 0
BBX 8 8 0 0
VVECTOR 4 8
SWIDTH1 0 -1000
DWIDTH1 0 -8
BITMAP 
00
00
00
E0
E0
00
00
00
ENDCHAR
STARTCHAR char199
ENCODING 409
SWIDTH 1000 0
DWIDTH 8 0
BBX 8 8 0 0
VVECTOR 4 8
SWIDTH1 0 -1000
DWIDTH1 0 -8
BITMAP 
20
20
60
C0
80
00
00
00
ENDCHAR
STARTCHAR char19A
ENCODING 410
SWIDTH 1000 0
DWIDTH 8 0
BBX 8 8 0 0
VVECTOR 4 8
SWIDTH1 0 -1000
DWIDTH1 0 -8
BITMAP 
00
00
00
F8
F8
00
00
00
ENDCHAR
STARTCHAR char19B
ENCODING 411
SWIDTH 1000 0
DWIDTH 8 0
BBX 8 8 0 0
VVECTOR 4 8
SWIDTH1 0 -1000
DWIDTH1 0 -8
BITMAP 
20
20
20
F8
F8
00
00
00
ENDCHAR
STARTCHAR char19C
ENCODING 412
SWIDTH 1000 0
DWIDTH 8 0
BBX 8 8 0 0
VVECTOR 4 8
SWIDTH1 0 -1000
DWIDTH1 0 -8
BITMAP 
00
00
00
80
C0
60
20
20
ENDCHAR
STARTCHAR char19D
ENCODING 413
SWIDTH 1000 0
DWIDTH 8 0
BBX 8 8 0 0
VVECTOR 4 8
SWIDTH1 0 -1000
DWIDTH1 0 -8
BITMAP 
20
20
20
E0
E0
20
20
20
ENDCHAR
STARTCHAR char19E
ENCODING 414
SWIDTH 1000 0
DWIDTH 8 0
BBX 8 8 0 0
VVECTOR 4 8
SWIDTH1 0 -1000
DWIDTH1 0 -8
BITMAP 
00
00
00
F8
F8
20
20
20
ENDCHAR
STARTCHAR char19F
ENCODING 415
SWIDTH 1000 0
DWIDTH 8 0
BBX 8 8 0 0
VVECTOR 4 8
SWIDTH1 0 -1000
DWIDTH1 0 -8
BITMAP 
20
20
20
F8
F8
20
20
20
ENDCHAR
STARTCHAR char1A0
ENCODING 416
SWIDTH 1000 0
DWIDTH 8 0
BBX 8 8 0 0
VVECTOR 4 8
SWIDTH1 0 -1000
DWIDTH1 0 -8
BITMAP 
20
10
30
50
30
00
00
00
ENDCHAR
STARTCHAR char1A1
ENCODING 417
SWIDTH 1000 0
DWIDTH 8 0
BBX 8 8 0 0
VVECTOR 4 8
SWIDTH1 0 -1000
DWIDTH1 0 -8
BITMAP 
60
90
90
60
00
00
00
00
ENDCHAR
STARTCHAR char1A2
ENCODING 418
SWIDTH 1000 0
DWIDTH 8 0
BBX 8 8 0 0
VVECTOR 4 8
SWIDTH1 0 -1000
DWIDTH1 0 -8
BITMAP 
20
50
20
00
00
00
00
00
ENDCHAR
STARTCHAR char1A3
ENCODING 419
SWIDTH 1000 0
DWIDTH 8 0
BBX 8 8 0 0
VVECTOR 4 8
SWIDTH1 0 -1000
DWIDTH1 0 -8
BITMAP 
00
30
49
E1
41
41
F8
00
ENDCHAR
STARTCHAR char1A4
ENCODING 420
SWIDTH 1000 0
DWIDTH 8 0
BBX 8 8 0 0
VVECTOR 4 8
SWIDTH1 0 -1000
DWIDTH1 0 -8
BITMAP 
70
88
24
44
44
24
88
70
ENDCHAR
STARTCHAR char1A5
ENCODING 421
SWIDTH 1000 0
DWIDTH 8 0
BBX 8 8 0 0
VVECTOR 4 8
SWIDTH1 0 -1000
DWIDTH1 0 -8
BITMAP 
00
70
D0
D0
50
50
F0
00
ENDCHAR
STARTCHAR char1A6
ENCODING 422
SWIDTH 1000 0
DWIDTH 8 0
BBX 8 8 0 0
VVECTOR 4 8
SWIDTH1 0 -1000
DWIDTH1 0 -8
BITMAP 
38
40
30
48
48
30
08
70
ENDCHAR
STARTCHAR char1A7
ENCODING 423
SWIDTH 1000 0
DWIDTH 8 0
BBX 8 8 0 0
VVECTOR 4 8
SWIDTH1 0 -1000
DWIDTH1 0 -8
BITMAP 
00
20
20
D8
20
20
20
00
ENDCHAR
STARTCHAR char1A8
ENCODING 424
SWIDTH 1000 0
DWIDTH 8 0
BBX 8 8 0 0
VVECTOR 4 8
SWIDTH1 0 -1000
DWIDTH1 0 -8
BITMAP 
00
90
A0
C0
48
98
BC
08
ENDCHAR
STARTCHAR char1A9
ENCODING 425
SWIDTH 1000 0
DWIDTH 8 0
BBX 8 8 0 0
VVECTOR 4 8
SWIDTH1 0 -1000
DWIDTH1 0 -8
BITMAP 
00
90
A0
C0
70
C8
90
38
ENDCHAR
STARTCHAR char1AA
ENCODING 426
SWIDTH 1000 0
DWIDTH 8 0
BBX 8 8 0 0
VVECTOR 4 8
SWIDTH1 0 -1000
DWIDTH1 0 -8
BITMAP 
C0
28
F0
20
E8
78
BC
08
ENDCHAR
STARTCHAR char1AB
ENCODING 427
SWIDTH 1000 0
DWIDTH 8 0
BBX 8 8 0 0
VVECTOR 4 8
SWIDTH1 0 -1000
DWIDTH1 0 -8
BITMAP 
00
00
28
50
A0
50
28
00
ENDCHAR
STARTCHAR char1AC
ENCODING 428
SWIDTH 1000 0
DWIDTH 8 0
BBX 8 8 0 0
VVECTOR 4 8
SWIDTH1 0 -1000
DWIDTH1 0 -8
BITMAP 
00
00
A0
50
28
50
A0
00
ENDCHAR
STARTCHAR char1AD
ENCODING 429
SWIDTH 1000 0
DWIDTH 8 0
BBX 8 8 0 0
VVECTOR 4 8
SWIDTH1 0 -1000
DWIDTH1 0 -8
BITMAP 
00
F0
B0
B8
F0
90
98
00
ENDCHAR
STARTCHAR char1AE
ENCODING 430
SWIDTH 1000 0
DWIDTH 8 0
BBX 8 8 0 0
VVECTOR 4 8
SWIDTH1 0 -1000
DWIDTH1 0 -8
BITMAP 
00
20
00
20
40
90
70
00
ENDCHAR
STARTCHAR char1AF
ENCODING 431
SWIDTH 1000 0
DWIDTH 8 0
BBX 8 8 0 0
VVECTOR 4 8
SWIDTH1 0 -1000
DWIDTH1 0 -8
BITMAP 
00
20
00
20
20
20
20
00
ENDCHAR
STARTCHAR char1B0
ENCODING 432
SWIDTH 1000 0
DWIDTH 8 0
BBX 8 8 0 0
VVECTOR 4 8
SWIDTH1 0 -1000
DWIDTH1 0 -8
BITMAP 
00
10
20
40
E0
40
80
00
ENDCHAR
STARTCHAR char1B1
ENCODING 433
SWIDTH 1000 0
DWIDTH 8 0
BBX 8 8 0 0
VVECTOR 4 8
SWIDTH1 0 -1000
DWIDTH1 0 -8
BITMAP 
00
20
70
A0
A0
A0
70
00
ENDCHAR
STARTCHAR char1B2
ENCODING 434
SWIDTH 1000 0
DWIDTH 8 0
BBX 8 8 0 0
VVECTOR 4 8
SWIDTH1 0 -1000
DWIDTH1 0 -8
BITMAP 
00
50
00
00
00
00
00
00
ENDCHAR
STARTCHAR char1B3
ENCODING 435
SWIDTH 1000 0
DWIDTH 8 0
BBX 8 8 0 0
VVECTOR 4 8
SWIDTH1 0 -1000
DWIDTH1 0 -8
BITMAP 
10
20
00
00
00
00
00
00
ENDCHAR
STARTCHAR char1B4
ENCODING 436
SWIDTH 1000 0
DWIDTH 8 0
BBX 8 8 0 0
VVECTOR 4 8
SWIDTH1 0 -1000
DWIDTH1 0 -8
BITMAP 
30
48
00
00
00
00
00
00
ENDCHAR
STARTCHAR char1B5
ENCODING 437
SWIDTH 1000 0
DWIDTH 8 0
BBX 8 8 0 0
VVECTOR 4 8
SWIDTH1 0 -1000
DWIDTH1 0 -8
BITMAP 
00
C8
D0
20
40
80
D8
D8
ENDCHAR
STARTCHAR char1B6
ENCODING 438
SWIDTH 1000 0
DWIDTH 8 0
BBX 8 8 0 0
VVECTOR 4 8
SWIDTH1 0 -1000
DWIDTH1 0 -8
BITMAP 
80
A0
C0
78
A8
B8
28
38
ENDCHAR
STARTCHAR char1B7
ENCODING 439
SWIDTH 1000 0
DWIDTH 8 0
BBX 8 8 0 0
VVECTOR 4 8
SWIDTH1 0 -1000
DWIDTH1 0 -8
BITMAP 
C0
40
C0
78
E8
38
28
38
ENDCHAR
STARTCHAR char1B8
ENCODING 440
SWIDTH 1000 0
DWIDTH 8 0
BBX 8 8 0 0
VVECTOR 4 8
SWIDTH1 0 -1000
DWIDTH1 0 -8
BITMAP 
C0
80
40
B8
28
38
28
38
ENDCHAR
STARTCHAR char1B9
ENCODING 441
SWIDTH 1000 0
DWIDTH 8 0
BBX 8 8 0 0
VVECTOR 4 8
SWIDTH1 0 -1000
DWIDTH1 0 -8
BITMAP 
C0
40
40
78
28
38
28
38
ENDCHAR
STARTCHAR char1BA
ENCODING 442
SWIDTH 1000 0
DWIDTH 8 0
BBX 8 8 0 0
VVECTOR 4 8
SWIDTH1 0 -1000
DWIDTH1 0 -8
BITMAP 
00
70
48
70
48
70
40
00
ENDCHAR
STARTCHAR char1BB
ENCODING 443
SWIDTH 1000 0
DWIDTH 8 0
BBX 8 8 0 0
VVECTOR 4 8
SWIDTH1 0 -1000
DWIDTH1 0 -8
BITMAP 
00
00
60
90
90
60
00
00
ENDCHAR
STARTCHAR char1BC
ENCODING 444
SWIDTH 1000 0
DWIDTH 8 0
BBX 8 8 0 0
VVECTOR 4 8
SWIDTH1 0 -1000
DWIDTH1 0 -8
BITMAP 
00
00
00
60
60
00
00
00
ENDCHAR
STARTCHAR char1BD
ENCODING 445
SWIDTH 1000 0
DWIDTH 8 0
BBX 8 8 0 0
VVECTOR 4 8
SWIDTH1 0 -1000
DWIDTH1 0 -8
BITMAP 
00
88
50
20
70
20
70
20
ENDCHAR
STARTCHAR char1BE
ENCODING 446
SWIDTH 1000 0
DWIDTH 8 0
BBX 8 8 0 0
VVECTOR 4 8
SWIDTH1 0 -1000
DWIDTH1 0 -8
BITMAP 
70
48
84
B4
A4
A4
48
70
ENDCHAR
STARTCHAR char1BF
ENCODING 447
SWIDTH 1000 0
DWIDTH 8 0
BBX 8 8 0 0
VVECTOR 4 8
SWIDTH1 0 -1000
DWIDTH1 0 -8
BITMAP 
00
E0
40
40
00
F8
A8
A8
ENDCHAR
STARTCHAR char1C0
ENCODING 448
SWIDTH 1000 0
DWIDTH 8 0
BBX 8 8 0 0
VVECTOR 4 8
SWIDTH1 0 -1000
DWIDTH1 0 -8
BITMAP 
40
80
00
E0
90
F0
90
90
ENDCHAR
STARTCHAR char1C1
ENCODING 449
SWIDTH 1000 0
DWIDTH 8 0
BBX 8 8 0 0
VVECTOR 4 8
SWIDTH1 0 -1000
DWIDTH1 0 -8
BITMAP 
40
80
00
F0
90
C0
90
F0
ENDCHAR
STARTCHAR char1C2
ENCODING 450
SWIDTH 1000 0
DWIDTH 8 0
BBX 8 8 0 0
VVECTOR 4 8
SWIDTH1 0 -1000
DWIDTH1 0 -8
BITMAP 
40
80
00
F0
40
40
40
F0
ENDCHAR
STARTCHAR char1C3
ENCODING 451
SWIDTH 1000 0
DWIDTH 8 0
BBX 8 8 0 0
VVECTOR 4 8
SWIDTH1 0 -1000
DWIDTH1 0 -8
BITMAP 
40
80
00
60
90
90
90
60
ENDCHAR
STARTCHAR char1C4
ENCODING 452
SWIDTH 1000 0
DWIDTH 8 0
BBX 8 8 0 0
VVECTOR 4 8
SWIDTH1 0 -1000
DWIDTH1 0 -8
BITMAP 
40
80
00
90
90
90
90
60
ENDCHAR
STARTCHAR char1C5
ENCODING 453
SWIDTH 1000 0
DWIDTH 8 0
BBX 8 8 0 0
VVECTOR 4 8
SWIDTH1 0 -1000
DWIDTH1 0 -8
BITMAP 
C0
A0
00
E0
90
F0
90
90
ENDCHAR
STARTCHAR char1C6
ENCODING 454
SWIDTH 1000 0
DWIDTH 8 0
BBX 8 8 0 0
VVECTOR 4 8
SWIDTH1 0 -1000
DWIDTH1 0 -8
BITMAP 
C0
A0
00
F0
90
C0
90
F0
ENDCHAR
STARTCHAR char1C7
ENCODING 455
SWIDTH 1000 0
DWIDTH 8 0
BBX 8 8 0 0
VVECTOR 4 8
SWIDTH1 0 -1000
DWIDTH1 0 -8
BITMAP 
C0
A0
00
F0
40
40
40
F0
ENDCHAR
STARTCHAR char1C8
ENCODING 456
SWIDTH 1000 0
DWIDTH 8 0
BBX 8 8 0 0
VVECTOR 4 8
SWIDTH1 0 -1000
DWIDTH1 0 -8
BITMAP 
C0
A0
00
60
90
90
90
60
ENDCHAR
STARTCHAR char1C9
ENCODING 457
SWIDTH 1000 0
DWIDTH 8 0
BBX 8 8 0 0
VVECTOR 4 8
SWIDTH1 0 -1000
DWIDTH1 0 -8
BITMAP 
C0
A0
00
90
90
90
90
E0
ENDCHAR
STARTCHAR char1CA
ENCODING 458
SWIDTH 1000 0
DWIDTH 8 0
BBX 8 8 0 0
VVECTOR 4 8
SWIDTH1 0 -1000
DWIDTH1 0 -8
BITMAP 
40
20
00
E0
90
F0
90
90
ENDCHAR
STARTCHAR char1CB
ENCODING 459
SWIDTH 1000 0
DWIDTH 8 0
BBX 8 8 0 0
VVECTOR 4 8
SWIDTH1 0 -1000
DWIDTH1 0 -8
BITMAP 
40
20
00
F0
90
C0
90
F0
ENDCHAR
STARTCHAR char1CC
ENCODING 460
SWIDTH 1000 0
DWIDTH 8 0
BBX 8 8 0 0
VVECTOR 4 8
SWIDTH1 0 -1000
DWIDTH1 0 -8
BITMAP 
40
20
00
F0
40
40
40
F0
ENDCHAR
STARTCHAR char1CD
ENCODING 461
SWIDTH 1000 0
DWIDTH 8 0
BBX 8 8 0 0
VVECTOR 4 8
SWIDTH1 0 -1000
DWIDTH1 0 -8
BITMAP 
40
20
00
60
90
90
90
60
ENDCHAR
STARTCHAR char1CE
ENCODING 462
SWIDTH 1000 0
DWIDTH 8 0
BBX 8 8 0 0
VVECTOR 4 8
SWIDTH1 0 -1000
DWIDTH1 0 -8
BITMAP 
40
20
00
90
90
90
90
E0
ENDCHAR
STARTCHAR char1CF
ENCODING 463
SWIDTH 1000 0
DWIDTH 8 0
BBX 8 8 0 0
VVECTOR 4 8
SWIDTH1 0 -1000
DWIDTH1 0 -8
BITMAP 
A0
00
00
B0
A0
40
40
40
ENDCHAR
STARTCHAR char1D0
ENCODING 464
SWIDTH 1000 0
DWIDTH 8 0
BBX 8 8 0 0
VVECTOR 4 8
SWIDTH1 0 -1000
DWIDTH1 0 -8
BITMAP 
A0
00
00
E0
90
F0
90
B8
ENDCHAR
STARTCHAR char1D1
ENCODING 465
SWIDTH 1000 0
DWIDTH 8 0
BBX 8 8 0 0
VVECTOR 4 8
SWIDTH1 0 -1000
DWIDTH1 0 -8
BITMAP 
A0
00
00
F0
90
C0
90
F0
ENDCHAR
STARTCHAR char1D2
ENCODING 466
SWIDTH 1000 0
DWIDTH 8 0
BBX 8 8 0 0
VVECTOR 4 8
SWIDTH1 0 -1000
DWIDTH1 0 -8
BITMAP 
A0
00
00
F0
40
40
40
F0
ENDCHAR
STARTCHAR char1D3
ENCODING 467
SWIDTH 1000 0
DWIDTH 8 0
BBX 8 8 0 0
VVECTOR 4 8
SWIDTH1 0 -1000
DWIDTH1 0 -8
BITMAP 
A0
00
00
60
90
90
90
60
ENDCHAR
STARTCHAR char1D4
ENCODING 468
SWIDTH 1000 0
DWIDTH 8 0
BBX 8 8 0 0
VVECTOR 4 8
SWIDTH1 0 -1000
DWIDTH1 0 -8
BITMAP 
A0
00
00
90
90
90
90
E0
ENDCHAR
STARTCHAR char1D5
ENCODING 469
SWIDTH 1000 0
DWIDTH 8 0
BBX 8 8 0 0
VVECTOR 4 8
SWIDTH1 0 -1000
DWIDTH1 0 -8
BITMAP 
00
E0
B0
80
B0
E0
40
C0
ENDCHAR
STARTCHAR char1D6
ENCODING 470
SWIDTH 1000 0
DWIDTH 8 0
BBX 8 8 0 0
VVECTOR 4 8
SWIDTH1 0 -1000
DWIDTH1 0 -8
BITMAP 
00
00
00
70
A0
F0
A0
B0
ENDCHAR
STARTCHAR char1D7
ENCODING 471
SWIDTH 1000 0
DWIDTH 8 0
BBX 8 8 0 0
VVECTOR 4 8
SWIDTH1 0 -1000
DWIDTH1 0 -8
BITMAP 
40
A0
40
E0
90
F0
90
90
ENDCHAR
STARTCHAR char1D8
ENCODING 472
SWIDTH 1000 0
DWIDTH 8 0
BBX 8 8 0 0
VVECTOR 4 8
SWIDTH1 0 -1000
DWIDTH1 0 -8
BITMAP 
00
00
00
78
98
A8
C8
F0
ENDCHAR
STARTCHAR char1D9
ENCODING 473
SWIDTH 1000 0
DWIDTH 8 0
BBX 8 8 0 0
VVECTOR 4 8
SWIDTH1 0 -1000
DWIDTH1 0 -8
BITMAP 
50
A0
00
B0
90
D0
B0
B0
ENDCHAR
STARTCHAR char1DA
ENCODING 474
SWIDTH 1000 0
DWIDTH 8 0
BBX 8 8 0 0
VVECTOR 4 8
SWIDTH1 0 -1000
DWIDTH1 0 -8
BITMAP 
50
A0
00
E0
90
F0
90
90
ENDCHAR
STARTCHAR char1DB
ENCODING 475
SWIDTH 1000 0
DWIDTH 8 0
BBX 8 8 0 0
VVECTOR 4 8
SWIDTH1 0 -1000
DWIDTH1 0 -8
BITMAP 
50
A0
00
60
90
90
90
60
ENDCHAR
STARTCHAR char1DC
ENCODING 476
SWIDTH 1000 0
DWIDTH 8 0
BBX 8 8 0 0
VVECTOR 4 8
SWIDTH1 0 -1000
DWIDTH1 0 -8
BITMAP 
00
20
40
80
40
A0
40
20
ENDCHAR
STARTCHAR char1DD
ENCODING 477
SWIDTH 1000 0
DWIDTH 8 0
BBX 8 8 0 0
VVECTOR 4 8
SWIDTH1 0 -1000
DWIDTH1 0 -8
BITMAP 
00
80
40
20
40
A0
40
80
ENDCHAR
STARTCHAR char1DE
ENCODING 478
SWIDTH 1000 0
DWIDTH 8 0
BBX 8 8 0 0
VVECTOR 4 8
SWIDTH1 0 -1000
DWIDTH1 0 -8
BITMAP 
00
20
40
F0
40
F0
40
80
ENDCHAR
STARTCHAR char1DF
ENCODING 479
SWIDTH 1000 0
DWIDTH 8 0
BBX 8 8 0 0
VVECTOR 4 8
SWIDTH1 0 -1000
DWIDTH1 0 -8
BITMAP 
00
50
A0
00
F0
00
F0
00
ENDCHAR
STARTCHAR char1E0
ENCODING 480
SWIDTH 1000 0
DWIDTH 8 0
BBX 8 8 0 0
VVECTOR 4 8
SWIDTH1 0 -1000
DWIDTH1 0 -8
BITMAP 
20
40
00
60
90
90
70
00
ENDCHAR
STARTCHAR char1E1
ENCODING 481
SWIDTH 1000 0
DWIDTH 8 0
BBX 8 8 0 0
VVECTOR 4 8
SWIDTH1 0 -1000
DWIDTH1 0 -8
BITMAP 
20
40
00
60
F0
80
70
00
ENDCHAR
STARTCHAR char1E2
ENCODING 482
SWIDTH 1000 0
DWIDTH 8 0
BBX 8 8 0 0
VVECTOR 4 8
SWIDTH1 0 -1000
DWIDTH1 0 -8
BITMAP 
20
40
20
00
60
20
60
00
ENDCHAR
STARTCHAR char1E3
ENCODING 483
SWIDTH 1000 0
DWIDTH 8 0
BBX 8 8 0 0
VVECTOR 4 8
SWIDTH1 0 -1000
DWIDTH1 0 -8
BITMAP 
20
40
00
60
90
90
60
00
ENDCHAR
STARTCHAR char1E4
ENCODING 484
SWIDTH 1000 0
DWIDTH 8 0
BBX 8 8 0 0
VVECTOR 4 8
SWIDTH1 0 -1000
DWIDTH1 0 -8
BITMAP 
20
40
00
90
90
90
60
00
ENDCHAR
STARTCHAR char1E5
ENCODING 485
SWIDTH 1000 0
DWIDTH 8 0
BBX 8 8 0 0
VVECTOR 4 8
SWIDTH1 0 -1000
DWIDTH1 0 -8
BITMAP 
60
90
00
60
90
90
70
00
ENDCHAR
STARTCHAR char1E6
ENCODING 486
SWIDTH 1000 0
DWIDTH 8 0
BBX 8 8 0 0
VVECTOR 4 8
SWIDTH1 0 -1000
DWIDTH1 0 -8
BITMAP 
60
90
00
60
F0
80
70
00
ENDCHAR
STARTCHAR char1E7
ENCODING 487
SWIDTH 1000 0
DWIDTH 8 0
BBX 8 8 0 0
VVECTOR 4 8
SWIDTH1 0 -1000
DWIDTH1 0 -8
BITMAP 
60
90
20
00
60
20
60
00
ENDCHAR
STARTCHAR char1E8
ENCODING 488
SWIDTH 1000 0
DWIDTH 8 0
BBX 8 8 0 0
VVECTOR 4 8
SWIDTH1 0 -1000
DWIDTH1 0 -8
BITMAP 
60
90
00
60
90
90
60
00
ENDCHAR
STARTCHAR char1E9
ENCODING 489
SWIDTH 1000 0
DWIDTH 8 0
BBX 8 8 0 0
VVECTOR 4 8
SWIDTH1 0 -1000
DWIDTH1 0 -8
BITMAP 
60
90
00
90
90
90
60
00
ENDCHAR
STARTCHAR char1EA
ENCODING 490
SWIDTH 1000 0
DWIDTH 8 0
BBX 8 8 0 0
VVECTOR 4 8
SWIDTH1 0 -1000
DWIDTH1 0 -8
BITMAP 
20
20
00
60
90
90
70
00
ENDCHAR
STARTCHAR char1EB
ENCODING 491
SWIDTH 1000 0
DWIDTH 8 0
BBX 8 8 0 0
VVECTOR 4 8
SWIDTH1 0 -1000
DWIDTH1 0 -8
BITMAP 
20
20
00
60
F0
80
70
00
ENDCHAR
STARTCHAR char1EC
ENCODING 492
SWIDTH 1000 0
DWIDTH 8 0
BBX 8 8 0 0
VVECTOR 4 8
SWIDTH1 0 -1000
DWIDTH1 0 -8
BITMAP 
20
20
20
00
60
20
60
00
ENDCHAR
STARTCHAR char1ED
ENCODING 493
SWIDTH 1000 0
DWIDTH 8 0
BBX 8 8 0 0
VVECTOR 4 8
SWIDTH1 0 -1000
DWIDTH1 0 -8
BITMAP 
20
20
00
60
90
90
60
00
ENDCHAR
STARTCHAR char1EE
ENCODING 494
SWIDTH 1000 0
DWIDTH 8 0
BBX 8 8 0 0
VVECTOR 4 8
SWIDTH1 0 -1000
DWIDTH1 0 -8
BITMAP 
20
20
00
90
90
90
60
00
ENDCHAR
STARTCHAR char1EF
ENCODING 495
SWIDTH 1000 0
DWIDTH 8 0
BBX 8 8 0 0
VVECTOR 4 8
SWIDTH1 0 -1000
DWIDTH1 0 -8
BITMAP 
50
00
00
90
90
70
10
60
ENDCHAR
STARTCHAR char1F0
ENCODING 496
SWIDTH 1000 0
DWIDTH 8 0
BBX 8 8 0 0
VVECTOR 4 8
SWIDTH1 0 -1000
DWIDTH1 0 -8
BITMAP 
50
00
00
60
90
90
70
00
ENDCHAR
STARTCHAR char1F1
ENCODING 497
SWIDTH 1000 0
DWIDTH 8 0
BBX 8 8 0 0
VVECTOR 4 8
SWIDTH1 0 -1000
DWIDTH1 0 -8
BITMAP 
50
00
00
60
F0
80
70
00
ENDCHAR
STARTCHAR char1F2
ENCODING 498
SWIDTH 1000 0
DWIDTH 8 0
BBX 8 8 0 0
VVECTOR 4 8
SWIDTH1 0 -1000
DWIDTH1 0 -8
BITMAP 
50
00
20
00
60
20
60
00
ENDCHAR
STARTCHAR char1F3
ENCODING 499
SWIDTH 1000 0
DWIDTH 8 0
BBX 8 8 0 0
VVECTOR 4 8
SWIDTH1 0 -1000
DWIDTH1 0 -8
BITMAP 
50
00
00
60
90
90
60
00
ENDCHAR
STARTCHAR char1F4
ENCODING 500
SWIDTH 1000 0
DWIDTH 8 0
BBX 8 8 0 0
VVECTOR 4 8
SWIDTH1 0 -1000
DWIDTH1 0 -8
BITMAP 
50
00
00
90
90
90
60
00
ENDCHAR
STARTCHAR char1F5
ENCODING 501
SWIDTH 1000 0
DWIDTH 8 0
BBX 8 8 0 0
VVECTOR 4 8
SWIDTH1 0 -1000
DWIDTH1 0 -8
BITMAP 
00
30
50
40
50
30
20
60
ENDCHAR
STARTCHAR char1F6
ENCODING 502
SWIDTH 1000 0
DWIDTH 8 0
BBX 8 8 0 0
VVECTOR 4 8
SWIDTH1 0 -1000
DWIDTH1 0 -8
BITMAP 
00
00
00
70
A8
B0
A0
78
ENDCHAR
STARTCHAR char1F7
ENCODING 503
SWIDTH 1000 0
DWIDTH 8 0
BBX 8 8 0 0
VVECTOR 4 8
SWIDTH1 0 -1000
DWIDTH1 0 -8
BITMAP 
00
00
00
60
90
90
70
00
ENDCHAR
STARTCHAR char1F8
ENCODING 504
SWIDTH 1000 0
DWIDTH 8 0
BBX 8 8 0 0
VVECTOR 4 8
SWIDTH1 0 -1000
DWIDTH1 0 -8
BITMAP 
00
00
00
60
90
90
60
00
ENDCHAR
STARTCHAR char1F9
ENCODING 505
SWIDTH 1000 0
DWIDTH 8 0
BBX 8 8 0 0
VVECTOR 4 8
SWIDTH1 0 -1000
DWIDTH1 0 -8
BITMAP 
50
A0
00
E0
90
90
90
00
ENDCHAR
STARTCHAR char1FA
ENCODING 506
SWIDTH 1000 0
DWIDTH 8 0
BBX 8 8 0 0
VVECTOR 4 8
SWIDTH1 0 -1000
DWIDTH1 0 -8
BITMAP 
50
A0
00
60
90
90
70
00
ENDCHAR
STARTCHAR char1FB
ENCODING 507
SWIDTH 1000 0
DWIDTH 8 0
BBX 8 8 0 0
VVECTOR 4 8
SWIDTH1 0 -1000
DWIDTH1 0 -8
BITMAP 
50
A0
00
60
90
90
60
00
ENDCHAR
STARTCHAR char1FC
ENCODING 508
SWIDTH 1000 0
DWIDTH 8 0
BBX 8 8 0 0
VVECTOR 4 8
SWIDTH1 0 -1000
DWIDTH1 0 -8
BITMAP 
00
00
20
F0
18
F0
20
00
ENDCHAR
STARTCHAR char1FD
ENCODING 509
SWIDTH 1000 0
DWIDTH 8 0
BBX 8 8 0 0
VVECTOR 4 8
SWIDTH1 0 -1000
DWIDTH1 0 -8
BITMAP 
00
00
20
78
C0
78
20
00
ENDCHAR
STARTCHAR char1FE
ENCODING 510
SWIDTH 1000 0
DWIDTH 8 0
BBX 8 8 0 0
VVECTOR 4 8
SWIDTH1 0 -1000
DWIDTH1 0 -8
BITMAP 
00
00
50
F8
88
F8
50
00
ENDCHAR
STARTCHAR char1FF
ENCODING 511
SWIDTH 1000 0
DWIDTH 8 0
BBX 8 8 0 0
VVECTOR 4 8
SWIDTH1 0 -1000
DWIDTH1 0 -8
BITMAP 
00
F0
00
F0
00
F0
00
00
ENDCHAR
ENDFONT
